<svg width="107" height="113" viewBox="0 0 107 113" fill="none" xmlns="http://www.w3.org/2000/svg">
<g clip-path="url(#clip0_42_13548)">
<path d="M77.9945 68.8865C87.3846 68.8865 94.9968 61.9162 94.9968 53.3178C94.9968 44.7194 87.3846 37.749 77.9945 37.749C68.6044 37.749 60.9922 44.7194 60.9922 53.3178C60.9922 61.9162 68.6044 68.8865 77.9945 68.8865Z" fill="url(#paint0_radial_42_13548)" style="mix-blend-mode:color-dodge"/>
<path d="M64.2964 58.7084C79.3653 36.4155 81.0781 11.4168 68.122 2.87229C55.166 -5.67221 32.4473 5.47307 17.3784 27.766C2.3095 50.0589 0.596701 75.0575 13.5527 83.6021C26.5088 92.1466 49.2275 81.0013 64.2964 58.7084Z" fill="url(#paint1_radial_42_13548)" style="mix-blend-mode:color-dodge"/>
<path d="M88.9141 51.2285V72.3839C88.9141 72.5237 88.9703 72.6577 89.0703 72.7566C89.1704 72.8554 89.3061 72.9109 89.4476 72.9109C89.5891 72.9109 89.7249 72.8554 89.8249 72.7566C89.925 72.6577 89.9812 72.5237 89.9812 72.3839V51.8293L88.9141 51.2285Z" fill="url(#paint2_linear_42_13548)" style="mix-blend-mode:color-dodge"/>
<g style="mix-blend-mode:overlay">
<path d="M103.209 39.5068L103.15 59.3552L74.6494 43.1013L74.7081 23.2529L103.209 39.5068Z" fill="url(#paint3_linear_42_13548)"/>
</g>
<path d="M75.8608 41.8211V38.896L101.67 53.6162V53.4844L75.8608 38.7642V35.9551L101.67 50.6727V50.5409L75.8608 35.8233V33.0142L101.67 47.7318V47.6L75.8608 32.8825V30.0733L101.67 44.7909V44.6592L75.8608 29.9416V27.1298L101.67 41.85V41.7183L75.8608 26.9981V26.2338L75.7461 26.168V41.8869L101.8 56.7468V56.6151L75.8608 41.8211Z" fill="white"/>
<path d="M75.6709 40.7639L79.6033 37.823L81.3241 42.3055L85.7447 37.4014L88.0791 44.4769L91.2752 37.8915L93.3615 45.5283L96.064 42.3055L102.208 55.8978L75.6709 40.7639Z" fill="url(#paint4_linear_42_13548)" style="mix-blend-mode:color-dodge"/>
<g style="mix-blend-mode:overlay">
<g style="mix-blend-mode:overlay">
<path d="M25.2262 28.4541L25.2982 54.1104L6.60719 64.7698L6.53516 39.1135L25.2262 28.4541Z" fill="url(#paint5_linear_42_13548)"/>
</g>
<path d="M6.60757 64.77L5.48974 64.127L5.41504 38.4707L6.53554 39.1137L6.60757 64.77Z" fill="url(#paint6_linear_42_13548)"/>
<path d="M6.53554 39.1139L5.41504 38.4709L24.1061 27.8115L25.2266 28.4545L6.53554 39.1139Z" fill="url(#paint7_linear_42_13548)"/>
</g>
<path d="M18.9491 39.8973L9.42489 45.3284C8.76059 45.7079 8.22168 45.3047 8.22168 44.4298C8.22168 43.5523 8.75526 42.5351 9.42489 42.1583L18.9491 36.7271C19.6134 36.3477 20.1524 36.7482 20.1524 37.6257C20.1524 38.4927 19.6134 39.5099 18.9491 39.8973Z" fill="#02A2D3"/>
<path d="M18.9491 53.4499L9.42489 58.8705C8.76059 59.25 8.22168 58.8468 8.22168 57.9719C8.22168 57.0944 8.75526 56.0772 9.42489 55.7004L18.9491 50.2666C19.6134 49.8898 20.1524 50.2903 20.1524 51.1678C20.1524 52.0533 19.6134 53.0731 18.9491 53.4499Z" fill="#33D9FF"/>
<path d="M22.356 42.3578L9.42489 49.7364C8.76059 50.1159 8.22168 49.7127 8.22168 48.8378C8.22168 47.9629 8.75526 46.9457 9.42489 46.5663L22.356 39.1877C23.0203 38.8082 23.5592 39.2114 23.5592 40.0863C23.5592 40.9506 23.0203 41.9784 22.356 42.3578Z" fill="#E1F5FF"/>
<path d="M16.6735 50.0112L9.42489 54.1458C8.76059 54.5253 8.22168 54.1221 8.22168 53.2472C8.22168 52.3697 8.75525 51.3525 9.42489 50.9756L16.6735 46.841C17.3378 46.4615 17.8767 46.8647 17.8767 47.7396C17.8767 48.6145 17.3378 49.6317 16.6735 50.0112Z" fill="#10698C"/>
<path d="M4.18848 80.0047L49.8996 106.114L101.485 76.6633L55.7743 50.5537L4.18848 80.0047Z" fill="url(#paint8_linear_42_13548)"/>
<path d="M4.18848 80.0049V83.0169L49.8996 109.126V106.114L4.18848 80.0049Z" fill="url(#paint9_linear_42_13548)"/>
<path d="M101.485 76.6631V79.6777L49.8994 109.126V106.114L101.485 76.6631Z" fill="url(#paint10_linear_42_13548)"/>
<path d="M79.3177 78.9528L66.9815 85.9861C66.6719 86.1244 66.3338 86.1893 65.9942 86.1756C65.6547 86.1619 65.3231 86.0699 65.0259 85.9071L52.1055 78.5285C51.5292 78.1991 51.4652 77.6958 51.9641 77.4112L64.3003 70.3778C64.6101 70.2401 64.9481 70.1756 65.2875 70.1893C65.6269 70.203 65.9585 70.2946 66.2558 70.4569L79.1763 77.8355C79.7499 78.1649 79.8166 78.6682 79.3177 78.9528Z" fill="url(#paint11_linear_42_13548)"/>
<path d="M79.3177 78.9537L66.9815 85.987C66.6719 86.1253 66.3338 86.1902 65.9942 86.1765C65.6547 86.1628 65.3231 86.0708 65.0259 85.908L52.1055 78.5294C51.975 78.4734 51.8619 78.3841 51.778 78.2706C51.694 78.1572 51.6422 78.0236 51.6279 77.8838V78.3713C51.6409 78.5125 51.692 78.6477 51.7761 78.7627C51.8601 78.8777 51.9739 78.9682 52.1055 79.0248L65.0259 86.4034C65.3231 86.5662 65.6547 86.6582 65.9942 86.6719C66.3338 86.6856 66.6719 86.6208 66.9815 86.4824L79.3177 79.4491C79.4107 79.4065 79.4907 79.3405 79.5497 79.2577C79.6087 79.1749 79.6446 79.0782 79.6538 78.9774V78.4952C79.6417 78.5934 79.6044 78.6871 79.5457 78.7673C79.4869 78.8475 79.4084 78.9116 79.3177 78.9537Z" fill="url(#paint12_linear_42_13548)"/>
<path d="M70.9625 74.6815L59.432 81.2695C59.334 81.3132 59.2269 81.3336 59.1194 81.329C59.0119 81.3244 58.907 81.295 58.8131 81.2432C58.629 81.1377 58.6077 80.9796 58.7677 80.89L70.2983 74.3152C70.3961 74.2711 70.5031 74.2503 70.6106 74.2544C70.7181 74.2585 70.8231 74.2875 70.9172 74.3389C71.1013 74.418 71.12 74.5866 70.9625 74.6815Z" fill="url(#paint13_linear_42_13548)"/>
<path d="M72.2271 75.3983L60.6966 81.9863C60.5985 82.03 60.4914 82.0504 60.3839 82.0458C60.2765 82.0412 60.1715 82.0118 60.0776 81.96C59.8936 81.8545 59.8749 81.6964 60.0323 81.6068L71.5628 75.032C71.661 74.9873 71.7684 74.9661 71.8765 74.9702C71.9845 74.9744 72.09 75.0037 72.1844 75.0557C72.3658 75.1506 72.3872 75.3087 72.2271 75.3983Z" fill="url(#paint14_linear_42_13548)"/>
<path d="M73.494 76.1203L61.9635 82.7083C61.865 82.752 61.7575 82.7724 61.6496 82.7678C61.5417 82.7632 61.4363 82.7338 61.3419 82.6819C61.1605 82.5765 61.1392 82.4184 61.2992 82.3288L72.8297 75.7408C72.9278 75.6971 73.0349 75.6767 73.1424 75.6813C73.2499 75.6859 73.3548 75.7153 73.4487 75.7671C73.6328 75.8726 73.6514 76.0307 73.494 76.1203Z" fill="url(#paint15_linear_42_13548)"/>
<path d="M68.2461 80.5578L63.2278 83.417C63.1301 83.4617 63.0231 83.4828 62.9155 83.4787C62.8079 83.4746 62.7028 83.4453 62.6089 83.3932C62.4248 83.2878 62.4061 83.1297 62.5635 83.0401L67.5818 80.1783C67.6799 80.1346 67.7869 80.1142 67.8944 80.1188C68.0019 80.1234 68.1068 80.1528 68.2007 80.2046C68.3848 80.3074 68.4035 80.4787 68.2461 80.5578Z" fill="url(#paint16_linear_42_13548)"/>
<path d="M69.0249 73.599L57.5371 80.158C57.432 80.2049 57.3171 80.227 57.2018 80.2224C57.0865 80.2179 56.9739 80.1868 56.8728 80.1316L53.6047 78.2633C53.4073 78.1526 53.3859 77.9813 53.5567 77.8838L65.0445 71.3248C65.1495 71.2772 65.2644 71.2548 65.3798 71.2594C65.4953 71.264 65.608 71.2954 65.7088 71.3511L68.9823 73.2169C69.1744 73.3302 69.1957 73.5015 69.0249 73.599Z" fill="url(#paint17_linear_42_13548)"/>
<path d="M77.7789 78.5898L66.2911 85.1409C66.1859 85.1879 66.0711 85.2099 65.9558 85.2054C65.8405 85.2008 65.7278 85.1697 65.6268 85.1145L64.0608 84.2212C63.8633 84.1079 63.842 83.9366 64.0127 83.8391L75.4979 77.2906C75.6034 77.243 75.7187 77.2206 75.8345 77.2252C75.9504 77.2298 76.0636 77.2612 76.1649 77.317L77.7309 78.2103C77.9283 78.321 77.9496 78.4923 77.7789 78.5898Z" fill="url(#paint18_linear_42_13548)"/>
<path d="M79.3177 79.8251L66.9815 86.8611C66.6716 86.999 66.3334 87.0634 65.9939 87.0492C65.6544 87.035 65.3229 86.9426 65.0259 86.7794L52.1055 79.4008C51.9753 79.345 51.8625 79.2561 51.7786 79.1431C51.6947 79.0302 51.6427 78.8972 51.6279 78.7578V79.2401C51.6413 79.3808 51.6927 79.5154 51.7767 79.6299C51.8607 79.7444 51.9742 79.8345 52.1055 79.8909L65.0259 87.2695C65.3229 87.4328 65.6544 87.5252 65.9939 87.5394C66.3334 87.5535 66.6716 87.4891 66.9815 87.3512L79.3177 80.3152C79.411 80.2731 79.4913 80.2072 79.5504 80.1243C79.6095 80.0414 79.6452 79.9445 79.6538 79.8435V79.3613C79.6425 79.4605 79.6057 79.5552 79.5469 79.6364C79.488 79.7176 79.4091 79.7825 79.3177 79.8251Z" fill="url(#paint19_linear_42_13548)"/>
<path d="M79.3179 79.4437L66.9817 86.4771C66.6721 86.6154 66.334 86.6803 65.9944 86.6666C65.6549 86.6528 65.3233 86.5609 65.0262 86.398L52.1057 79.0195C51.9185 78.9232 51.7679 78.7698 51.6762 78.582C51.5534 78.8456 51.6975 79.1697 52.1057 79.4016L65.0262 86.7801C65.3231 86.9434 65.6546 87.0358 65.9941 87.05C66.3337 87.0642 66.6719 86.9997 66.9817 86.8618L79.3179 79.8258C79.4475 79.7727 79.5507 79.6713 79.6051 79.5435C79.6595 79.4158 79.6608 79.272 79.6087 79.1433C79.5462 79.2712 79.4444 79.3763 79.3179 79.4437Z" fill="#C7E8FB"/>
<path d="M79.3177 80.6981L66.9815 87.7341C66.6716 87.872 66.3334 87.9364 65.9939 87.9223C65.6544 87.9081 65.3229 87.8157 65.0259 87.6524L52.1055 80.2738C51.9753 80.2181 51.8625 80.1292 51.7786 80.0162C51.6947 79.9032 51.6427 79.7702 51.6279 79.6309V80.1131C51.6413 80.2539 51.6927 80.3885 51.7767 80.503C51.8607 80.6175 51.9742 80.7076 52.1055 80.764L65.0259 88.1426C65.3229 88.3058 65.6544 88.3982 65.9939 88.4124C66.3334 88.4266 66.6716 88.3622 66.9815 88.2242L79.3177 81.1883C79.411 81.1461 79.4913 81.0802 79.5504 80.9973C79.6095 80.9145 79.6452 80.8176 79.6538 80.7166V80.2343C79.643 80.3337 79.6064 80.4286 79.5475 80.5099C79.4886 80.5911 79.4094 80.656 79.3177 80.6981Z" fill="url(#paint20_linear_42_13548)"/>
<path d="M79.3179 80.3158L66.9817 87.3492C66.6721 87.4875 66.334 87.5524 65.9944 87.5386C65.6549 87.5249 65.3233 87.4329 65.0262 87.2701L52.1057 79.8915C51.9185 79.7953 51.7679 79.6418 51.6762 79.4541C51.5534 79.7176 51.6975 80.0418 52.1057 80.2737L65.0262 87.6522C65.3231 87.8155 65.6546 87.9079 65.9941 87.9221C66.3337 87.9363 66.6719 87.8718 66.9817 87.7339L79.3179 80.6979C79.4475 80.6448 79.5507 80.5433 79.6051 80.4156C79.6595 80.2879 79.6608 80.1441 79.6087 80.0154C79.547 80.1438 79.445 80.2491 79.3179 80.3158Z" fill="#C7E8FB"/>
<path d="M79.3177 81.5728L66.9815 88.6062C66.6716 88.7441 66.3334 88.8085 65.9939 88.7943C65.6544 88.7802 65.3229 88.6877 65.0259 88.5245L52.1055 81.1459C51.9753 81.0902 51.8625 81.0012 51.7786 80.8883C51.6947 80.7753 51.6427 80.6423 51.6279 80.5029V81.0063C51.6413 81.147 51.6927 81.2816 51.7767 81.3961C51.8607 81.5106 51.9742 81.6007 52.1055 81.6571L65.0259 89.0357C65.3229 89.199 65.6544 89.2914 65.9939 89.3056C66.3334 89.3197 66.6716 89.2553 66.9815 89.1174L79.3177 82.0814C79.411 82.0393 79.4913 81.9734 79.5504 81.8905C79.6095 81.8076 79.6452 81.7107 79.6538 81.6097V81.1301C79.6389 81.2255 79.6004 81.3158 79.5418 81.393C79.4832 81.4702 79.4062 81.532 79.3177 81.5728Z" fill="url(#paint21_linear_42_13548)"/>
<path d="M79.3179 81.1879L66.9817 88.2212C66.6721 88.3595 66.334 88.4244 65.9944 88.4107C65.6549 88.397 65.3233 88.305 65.0262 88.1422L52.1057 80.7636C51.9179 80.6681 51.7671 80.5145 51.6762 80.3262C51.5534 80.5897 51.6975 80.9138 52.1057 81.1457L65.0262 88.5243C65.3231 88.6875 65.6546 88.7799 65.9941 88.7941C66.3337 88.8083 66.6719 88.7439 66.9817 88.606L79.3179 81.5726C79.4481 81.5195 79.5518 81.4176 79.6063 81.2893C79.6608 81.1609 79.6616 81.0165 79.6087 80.8875C79.547 81.0159 79.445 81.1212 79.3179 81.1879Z" fill="#C7E8FB"/>
<path d="M60.659 88.5585L44.9532 97.5181C44.6413 97.6584 44.3004 97.7244 43.9579 97.7107C43.6155 97.6969 43.2811 97.6039 42.9817 97.4391L32.6944 91.5705C32.1128 91.2385 32.0488 90.7351 32.553 90.4479L48.2614 81.4882C48.573 81.3486 48.9134 81.283 49.2553 81.2967C49.5973 81.3104 49.9312 81.4031 50.2303 81.5673L60.5176 87.4359C61.1018 87.7679 61.1632 88.2712 60.659 88.5585Z" fill="#E1F5FF"/>
<path d="M52.071 84.0103L36.9736 92.6195C36.7947 92.6988 36.5995 92.7357 36.4036 92.7275C36.2078 92.7193 36.0165 92.6661 35.8451 92.5721L33.8015 91.4073C33.468 91.2176 33.4333 90.9277 33.7214 90.7644L48.8189 82.1552C48.9974 82.0749 49.1925 82.0372 49.3885 82.0449C49.5845 82.0527 49.7759 82.1058 49.9474 82.2L52.0043 83.3779C52.3244 83.5571 52.3591 83.8443 52.071 84.0103Z" fill="url(#paint22_linear_42_13548)"/>
<path d="M41.6319 93.0651L39.6844 94.1771L37.7021 93.044L39.6497 91.9346L41.6319 93.0651Z" fill="#7DB9D1"/>
<path d="M44.2674 91.5631L42.3199 92.6752L40.335 91.542L42.2825 90.4326L44.2674 91.5631Z" fill="#7DB9D1"/>
<path d="M46.9005 90.0602L44.9529 91.1722L42.9707 90.0391L44.9156 88.9297L46.9005 90.0602Z" fill="#7DB9D1"/>
<path d="M49.5343 88.5582L47.5894 89.6677L45.6045 88.5372L47.552 87.4277L49.5343 88.5582Z" fill="#7DB9D1"/>
<path d="M52.1697 87.0563L50.2222 88.1657L48.2373 87.0352L50.1848 85.9258L52.1697 87.0563Z" fill="#7DB9D1"/>
<path d="M54.8028 85.5543L52.8553 86.6637L50.873 85.5332L52.8206 84.4238L54.8028 85.5543Z" fill="#7DB9D1"/>
<path d="M43.918 94.3688L41.9705 95.4808L39.9883 94.3477L41.9358 93.2383L43.918 94.3688Z" fill="#7DB9D1"/>
<path d="M46.5535 92.8668L44.606 93.9789L42.6211 92.8457L44.5686 91.7363L46.5535 92.8668Z" fill="#7DB9D1"/>
<path d="M49.1866 91.3649L47.2391 92.4743L45.2568 91.3438L47.2044 90.2344L49.1866 91.3649Z" fill="#7DB9D1"/>
<path d="M51.8231 89.8629L49.8755 90.9723L47.8906 89.8418L49.8382 88.7324L51.8231 89.8629Z" fill="#7DB9D1"/>
<path d="M54.4559 88.3607L52.5083 89.4701L50.5234 88.3396L52.471 87.2275L54.4559 88.3607Z" fill="#BBE7F9"/>
<path d="M57.0889 86.8587L55.1414 87.9681L53.1592 86.8376L55.1067 85.7256L57.0889 86.8587Z" fill="#7DB9D1"/>
<path d="M46.2042 95.6735L44.2593 96.7829L42.2744 95.6524L44.222 94.543L46.2042 95.6735Z" fill="#7DB9D1"/>
<path d="M48.8406 94.1715L46.8931 95.2809L44.9082 94.1504L46.8557 93.041L48.8406 94.1715Z" fill="#7DB9D1"/>
<path d="M51.4737 92.6696L49.5262 93.779L47.5439 92.6485L49.4915 91.5391L51.4737 92.6696Z" fill="#7DB9D1"/>
<path d="M54.1092 91.1676L52.1616 92.277L50.1768 91.1465L52.1243 90.0371L54.1092 91.1676Z" fill="#7DB9D1"/>
<path d="M56.7423 89.6654L54.7947 90.7748L52.8125 89.6443L54.7574 88.5322L56.7423 89.6654Z" fill="#7DB9D1"/>
<path d="M59.3761 88.1634L57.4312 89.2728L55.4463 88.1423L57.3938 87.0303L59.3761 88.1634Z" fill="#7DB9D1"/>
<path d="M36.512 90.0578L36.4613 90.0868C36.3464 90.1384 36.2208 90.1625 36.0946 90.157C35.9685 90.1515 35.8455 90.1166 35.7357 90.0552L34.2817 89.2251C34.0656 89.1039 34.0416 88.9194 34.2283 88.814L34.279 88.785C34.3937 88.733 34.5192 88.7085 34.6454 88.7135C34.7715 88.7186 34.8946 88.753 35.0047 88.814L36.4587 89.6441C36.6748 89.7653 36.6961 89.9656 36.512 90.0578Z" fill="#004C60"/>
<path d="M42.0716 86.8879L42.0209 86.9169C41.906 86.9685 41.7803 86.9926 41.6542 86.9871C41.5281 86.9816 41.4051 86.9467 41.2952 86.8853L39.8412 86.0552C39.6252 85.934 39.6011 85.7495 39.7879 85.6415L39.8386 85.6151C39.9533 85.5631 40.0788 85.5386 40.2049 85.5436C40.331 85.5487 40.4542 85.5831 40.5642 85.6441L42.0182 86.4742C42.2317 86.5954 42.2557 86.7799 42.0716 86.8879Z" fill="#004C60"/>
<path d="M47.6287 83.7178L47.5807 83.7441C47.466 83.7962 47.3405 83.8207 47.2144 83.8156C47.0882 83.8106 46.9651 83.7762 46.8551 83.7152L45.3984 82.8851C45.185 82.7639 45.161 82.5794 45.3477 82.4713L45.3984 82.4424C45.513 82.3912 45.6381 82.3674 45.7637 82.3728C45.8893 82.3783 46.0119 82.413 46.1214 82.474L47.578 83.3041C47.7915 83.4253 47.8155 83.6098 47.6287 83.7178Z" fill="#004C60"/>
<path d="M60.6589 88.5586L44.9532 97.5183C44.6413 97.6585 44.3003 97.7245 43.9579 97.7108C43.6154 97.697 43.281 97.604 42.9816 97.4392L32.6943 91.5706C32.5755 91.5174 32.4706 91.438 32.3878 91.3383C32.305 91.2387 32.2465 91.1217 32.2168 90.9961V93.157C32.2425 93.2867 32.2992 93.4085 32.3823 93.5121C32.4654 93.6157 32.5724 93.6982 32.6943 93.7526L42.9816 99.6212C43.2812 99.7854 43.6156 99.878 43.9579 99.8918C44.3003 99.9055 44.6411 99.8399 44.9532 99.7002L60.6589 90.7405C60.7653 90.6946 60.8548 90.6172 60.915 90.5191C60.9751 90.421 61.0031 90.3069 60.995 90.1924C60.9963 90.1854 60.9963 90.1783 60.995 90.1713V88.0342C60.9978 88.1446 60.9673 88.2534 60.9075 88.3467C60.8476 88.4401 60.7611 88.5138 60.6589 88.5586Z" fill="url(#paint23_linear_42_13548)"/>
<path d="M52.767 88.1208V87.2037C52.767 87.1141 52.6416 87.043 52.4869 87.043C52.3321 87.043 52.2041 87.1141 52.2041 87.2037V88.1208H50.6034C50.4486 88.1208 50.3232 88.1919 50.3232 88.2815C50.3232 88.3711 50.4486 88.4423 50.6034 88.4423H52.2041V89.3593C52.2041 89.4463 52.3295 89.5201 52.4869 89.5201C52.5557 89.5213 52.6237 89.5049 52.6843 89.4726C52.7069 89.4626 52.7265 89.4468 52.741 89.4269C52.7555 89.407 52.7645 89.3837 52.767 89.3593V88.4423H54.3677C54.4374 88.4435 54.5063 88.4271 54.5678 88.3948C54.5904 88.3848 54.61 88.369 54.6245 88.3491C54.6391 88.3292 54.648 88.3059 54.6505 88.2815C54.6505 88.1919 54.5225 88.1208 54.3677 88.1208H52.767Z" fill="#EF7851"/>
<path d="M77.7199 73.3951C81.4668 73.3951 84.5043 71.6632 84.5043 69.5267C84.5043 67.3902 81.4668 65.6582 77.7199 65.6582C73.973 65.6582 70.9355 67.3902 70.9355 69.5267C70.9355 71.6632 73.973 73.3951 77.7199 73.3951Z" fill="#33D9FF"/>
<path d="M82.5167 72.2623C79.8675 73.7749 75.5802 73.7749 72.9124 72.2623C71.5918 71.5086 70.9301 70.5204 70.9248 69.5322V70.8735C70.9248 71.8644 71.5864 72.8579 72.9124 73.6142C75.5615 75.1268 79.8488 75.1268 82.5167 73.6142C83.8506 72.8579 84.5069 71.8644 84.5042 70.8735V69.5322C84.5016 70.5204 83.8373 71.5192 82.5167 72.2623Z" fill="url(#paint24_linear_42_13548)"/>
<path d="M83.6238 69.4617C83.6004 68.9982 83.4316 68.5534 83.1409 68.1889L80.4918 61.2425L83.6932 53.0049H71.7705L74.8572 61.2425L72.2801 68.2179C72.0001 68.5776 71.839 69.0137 71.8185 69.467C71.7945 70.3471 72.3681 71.2299 73.5446 71.8993C75.8523 73.2169 79.5954 73.2169 81.9031 71.8993C83.0796 71.2299 83.6532 70.3471 83.6318 69.467L83.6238 69.4617Z" fill="url(#paint25_linear_42_13548)" style="mix-blend-mode:color-dodge"/>
<path d="M76.0422 61.2418C76.1488 61.3824 76.2842 61.4991 76.4397 61.5843C76.8361 61.7832 77.2744 61.8868 77.7189 61.8868C78.1635 61.8868 78.6018 61.7832 78.9982 61.5843C79.1536 61.4991 79.2891 61.3824 79.3957 61.2418L80.5162 59.853C80.9724 59.2258 80.7563 58.4774 79.8626 57.9688C78.678 57.2942 76.7598 57.2942 75.578 57.9688C74.6842 58.4774 74.4655 59.2258 74.9217 59.853L76.0422 61.2418Z" fill="url(#paint26_linear_42_13548)"/>
<path d="M72.6618 68.2725C71.8374 69.4056 72.2296 70.7601 73.8463 71.6798C75.9806 72.8999 79.4489 72.8999 81.5832 71.6798C83.1999 70.7601 83.5947 69.4056 82.7677 68.2725L79.6703 64.014C79.5503 63.8495 79.3956 63.7129 79.2168 63.6134C78.7564 63.3822 78.2472 63.2617 77.7308 63.2617C77.2143 63.2617 76.7051 63.3822 76.2448 63.6134C76.0571 63.7145 75.8948 63.8559 75.7699 64.0272L72.6618 68.2725Z" fill="url(#paint27_linear_42_13548)"/>
<path d="M77.7682 62.9335C77.7685 62.9476 77.766 62.9616 77.7608 62.9747C77.7556 62.9878 77.7478 62.9997 77.7379 63.0098C77.7279 63.0198 77.716 63.0278 77.7029 63.0333C77.6898 63.0388 77.6757 63.0416 77.6614 63.0416C77.6472 63.0416 77.6331 63.0388 77.62 63.0333C77.6069 63.0278 77.595 63.0198 77.585 63.0098C77.5751 62.9997 77.5673 62.9878 77.5621 62.9747C77.5569 62.9616 77.5544 62.9476 77.5547 62.9335C77.5547 62.9056 77.566 62.8788 77.586 62.859C77.606 62.8392 77.6331 62.8281 77.6614 62.8281C77.6897 62.8281 77.7169 62.8392 77.7369 62.859C77.7569 62.8788 77.7682 62.9056 77.7682 62.9335Z" fill="#FFBB00"/>
<path d="M77.314 63.1344C77.314 63.1624 77.3028 63.1892 77.2828 63.2089C77.2628 63.2287 77.2356 63.2398 77.2073 63.2398C77.1932 63.2402 77.1792 63.2377 77.1661 63.2325C77.153 63.2274 77.141 63.2196 77.1311 63.2098C77.1211 63.1999 77.1132 63.1881 77.108 63.1752C77.1028 63.1622 77.1003 63.1484 77.1006 63.1344C77.1003 63.1203 77.1028 63.1064 77.108 63.0933C77.1132 63.0802 77.121 63.0682 77.1309 63.0582C77.1409 63.0481 77.1527 63.0401 77.1659 63.0346C77.179 63.0292 77.1931 63.0264 77.2073 63.0264C77.2216 63.0264 77.2357 63.0292 77.2488 63.0346C77.2619 63.0401 77.2738 63.0481 77.2838 63.0582C77.2937 63.0682 77.3015 63.0802 77.3067 63.0933C77.3119 63.1064 77.3144 63.1203 77.314 63.1344Z" fill="#FFBB00"/>
<path d="M77.8824 62.0771C77.8824 62.1051 77.8711 62.1319 77.8511 62.1516C77.8311 62.1714 77.804 62.1825 77.7757 62.1825C77.7474 62.1825 77.7202 62.1714 77.7002 62.1516C77.6802 62.1319 77.6689 62.1051 77.6689 62.0771C77.6689 62.0491 77.6802 62.0223 77.7002 62.0026C77.7202 61.9828 77.7474 61.9717 77.7757 61.9717C77.804 61.9717 77.8311 61.9828 77.8511 62.0026C77.8711 62.0223 77.8824 62.0491 77.8824 62.0771Z" fill="#FFBB00"/>
<path d="M77.843 62.5595C77.8431 62.5736 77.8402 62.5875 77.8347 62.6005C77.8292 62.6135 77.8211 62.6252 77.8109 62.635C77.8007 62.6448 77.7886 62.6526 77.7753 62.6577C77.7621 62.6628 77.7479 62.6653 77.7337 62.6649C77.7054 62.6649 77.6782 62.6538 77.6582 62.6341C77.6382 62.6143 77.627 62.5875 77.627 62.5595C77.627 62.5316 77.6382 62.5048 77.6582 62.485C77.6782 62.4652 77.7054 62.4541 77.7337 62.4541C77.7479 62.4538 77.7621 62.4562 77.7753 62.4614C77.7886 62.4665 77.8007 62.4742 77.8109 62.4841C77.8211 62.4939 77.8292 62.5056 77.8347 62.5186C77.8402 62.5315 77.8431 62.5455 77.843 62.5595Z" fill="#FFBB00"/>
<path d="M77.6158 62.2958C77.6162 62.3098 77.6137 62.3236 77.6084 62.3366C77.6032 62.3496 77.5953 62.3613 77.5854 62.3712C77.5754 62.381 77.5635 62.3888 77.5504 62.394C77.5372 62.3991 77.5232 62.4016 77.5091 62.4012C77.495 62.4016 77.4809 62.3991 77.4678 62.394C77.4547 62.3888 77.4428 62.381 77.4328 62.3712C77.4228 62.3613 77.415 62.3496 77.4098 62.3366C77.4045 62.3236 77.402 62.3098 77.4024 62.2958C77.4024 62.2679 77.4136 62.2411 77.4336 62.2213C77.4536 62.2015 77.4808 62.1904 77.5091 62.1904C77.5374 62.1904 77.5645 62.2015 77.5845 62.2213C77.6046 62.2411 77.6158 62.2679 77.6158 62.2958Z" fill="#FFBB00"/>
<path d="M78.2056 62.3222C78.2056 62.3502 78.1944 62.377 78.1744 62.3967C78.1543 62.4165 78.1272 62.4276 78.0989 62.4276C78.0706 62.4276 78.0435 62.4165 78.0234 62.3967C78.0034 62.377 77.9922 62.3502 77.9922 62.3222C77.9922 62.2942 78.0034 62.2674 78.0234 62.2477C78.0435 62.2279 78.0706 62.2168 78.0989 62.2168C78.1272 62.2168 78.1543 62.2279 78.1744 62.2477C78.1944 62.2674 78.2056 62.2942 78.2056 62.3222Z" fill="#FFBB00"/>
<path d="M77.2688 62.1034C77.3278 62.1034 77.3755 62.0562 77.3755 61.998C77.3755 61.9398 77.3278 61.8926 77.2688 61.8926C77.2099 61.8926 77.1621 61.9398 77.1621 61.998C77.1621 62.0562 77.2099 62.1034 77.2688 62.1034Z" fill="#FFBB00"/>
<path d="M78.2984 63.0312C78.2984 63.0591 78.2871 63.086 78.2671 63.1057C78.2471 63.1255 78.22 63.1366 78.1917 63.1366C78.1634 63.1366 78.1362 63.1255 78.1162 63.1057C78.0962 63.086 78.085 63.0591 78.085 63.0312C78.085 63.0032 78.0962 62.9764 78.1162 62.9567C78.1362 62.9369 78.1634 62.9258 78.1917 62.9258C78.22 62.9258 78.2471 62.9369 78.2671 62.9567C78.2871 62.9764 78.2984 63.0032 78.2984 63.0312Z" fill="#FFBB00"/>
<path opacity="0.5" d="M83.2824 69.4717C83.2603 69.0776 83.1148 68.7001 82.8662 68.3912L82.8368 68.3517L80.1263 61.2367L83.1863 53.3311H82.5007L79.4406 61.2367L82.1512 68.357L82.1805 68.3965C82.4303 68.7047 82.5759 69.0826 82.5967 69.4769V69.5323C82.5967 70.307 82.0471 71.0501 81.0414 71.622C79.9123 72.2197 78.654 72.5397 77.373 72.5548C77.4878 72.5548 77.5998 72.5548 77.7172 72.5548C79.1109 72.5842 80.4889 72.2593 81.719 71.6114C82.7248 71.0396 83.277 70.2938 83.277 69.5217L83.2824 69.4717Z" fill="white"/>
<path d="M77.7199 55.5075C81.4668 55.5075 84.5043 53.7755 84.5043 51.639C84.5043 49.5025 81.4668 47.7705 77.7199 47.7705C73.973 47.7705 70.9355 49.5025 70.9355 51.639C70.9355 53.7755 73.973 55.5075 77.7199 55.5075Z" fill="#33D9FF"/>
<path d="M82.5167 54.3746C79.8675 55.8872 75.5802 55.8872 72.9124 54.3746C71.5918 53.6209 70.9301 52.6327 70.9248 51.6445V52.9832C70.9248 53.9767 71.5864 54.9702 72.9124 55.7265C75.5615 57.2391 79.8488 57.2391 82.5167 55.7265C83.8506 54.9702 84.5069 53.9767 84.5042 52.9832V51.6445C84.5016 52.6327 83.8373 53.6209 82.5167 54.3746Z" fill="url(#paint28_linear_42_13548)"/>
<path d="M73.9796 99.5974L72.8724 98.9623L72.1895 98.0137L73.2966 98.6514L73.9796 99.5974Z" fill="#005E68"/>
<path d="M76.0844 93.8812L74.9746 93.2461L76.1538 93.3462L77.2636 93.9813L76.0844 93.8812Z" fill="#33D9FF"/>
<path d="M71.0451 101.616L69.9379 100.981L69.9326 99.4395L71.0398 100.075L71.0451 101.616Z" fill="#005E68"/>
<path d="M76.197 91.2546L75.0898 90.6195L76.4478 89.8447L77.555 90.4798L76.197 91.2546Z" fill="#007E93"/>
<path d="M68.3474 101.785L67.2402 101.147L67.9152 99.4238L69.025 100.062L68.3474 101.785Z" fill="#005E68"/>
<path d="M75.1667 89.5518L74.0596 88.9167L75.2334 87.4727L76.3406 88.1104L75.1667 89.5518Z" fill="#007E93"/>
<path d="M73.9477 92.6006C73.8512 92.3813 73.688 92.1971 73.4808 92.0736L72.3736 91.4385C72.7685 91.6625 73.0139 92.1447 73.0139 92.8272C73.0139 92.9063 73.0139 92.9853 73.0139 93.067V93.1435C73.0139 93.1935 73.0006 93.2462 72.9952 93.2989C72.9899 93.3516 72.9766 93.4122 72.9632 93.4702C72.9499 93.5282 72.9499 93.5493 72.9419 93.5888C72.9339 93.6283 72.9232 93.6626 72.9125 93.6995L72.8725 93.855C72.8725 93.8839 72.8538 93.9129 72.8432 93.9446C72.8325 93.9762 72.8058 94.0605 72.7845 94.1185L72.7605 94.1896C72.7285 94.2687 72.6964 94.3477 72.6618 94.4268L72.6484 94.4531C72.6191 94.5243 72.5844 94.5954 72.5497 94.664C72.5497 94.685 72.5284 94.7061 72.515 94.7272C72.483 94.7931 72.4457 94.859 72.4083 94.9222C72.4023 94.9359 72.3951 94.9491 72.387 94.9617C72.3443 95.0355 72.2989 95.1093 72.2509 95.1831C72.2349 95.2042 72.2216 95.2253 72.2082 95.2463L72.0988 95.3992C72.0799 95.4275 72.0594 95.4548 72.0375 95.4809L71.9388 95.6074L71.8534 95.7101L71.7707 95.8024C71.7227 95.8551 71.6747 95.9078 71.624 95.9552L71.5306 96.0474C71.507 96.0716 71.4821 96.0945 71.4559 96.116C71.4159 96.1529 71.3759 96.1897 71.3332 96.224L71.2585 96.2846C71.2131 96.3215 71.1651 96.3531 71.1197 96.3874L71.053 96.4348C70.9837 96.4822 70.9143 96.527 70.8449 96.5666C70.7756 96.6061 70.7089 96.6377 70.6422 96.6693L70.5915 96.6931C70.5275 96.7221 70.4634 96.7458 70.4021 96.7669C70.3461 96.7827 70.2954 96.7985 70.242 96.809L70.1513 96.8301L70.0366 96.8459H69.9699H69.7965C69.7428 96.8418 69.6893 96.8348 69.6364 96.8248H69.5964L69.4763 96.7906H69.439C69.3895 96.7709 69.3413 96.748 69.2949 96.7221L70.4021 97.3571H70.4154L70.5248 97.4098H70.5462L70.5835 97.423L70.6395 97.4415C70.6605 97.448 70.6819 97.4532 70.7036 97.4573H70.7436H70.7649C70.8081 97.4653 70.8518 97.4706 70.8956 97.4731H71.0771H71.1437H71.2051H71.2585L71.3492 97.4546H71.3972L71.5092 97.4204C71.5554 97.406 71.6009 97.3893 71.6453 97.3703C71.6636 97.3635 71.6814 97.3556 71.6987 97.3466L71.752 97.3229C71.8161 97.2913 71.8827 97.2596 71.9521 97.2201C72.0215 97.1806 72.0908 97.1358 72.1602 97.0884C72.1835 97.0741 72.2058 97.0582 72.2269 97.0409C72.2749 97.009 72.3212 96.9747 72.3656 96.9381L72.4403 96.8775C72.483 96.8433 72.523 96.8064 72.5631 96.7695L72.6378 96.7036L72.6858 96.6588L72.7311 96.6114C72.7818 96.5613 72.8298 96.5086 72.8779 96.4559L72.9232 96.4085L72.9606 96.3637L73.0459 96.2609L73.102 96.1924L73.1446 96.137L73.206 96.0553C73.206 96.0343 73.2354 96.0158 73.2487 95.9974C73.262 95.9789 73.2914 95.9315 73.3154 95.8999L73.3581 95.8366L73.3741 95.8103C73.4141 95.7497 73.4515 95.6891 73.4888 95.6284V95.6153C73.4888 95.6021 73.5021 95.5915 73.5075 95.5784L73.5849 95.444C73.5849 95.4255 73.6035 95.4045 73.6142 95.3834L73.6489 95.3175L73.6782 95.2595C73.7022 95.2094 73.7262 95.1594 73.7476 95.1093C73.7486 95.0997 73.7486 95.09 73.7476 95.0803L73.8276 94.8853C73.8309 94.8735 73.8354 94.862 73.841 94.8511L73.865 94.7799C73.865 94.7457 73.889 94.714 73.9023 94.6824L73.9237 94.606C73.9237 94.577 73.9423 94.5454 73.953 94.5164L73.969 94.4611C73.969 94.4294 73.985 94.3952 73.993 94.3635C74.001 94.3319 74.0144 94.2871 74.0224 94.2502V94.2133C74.0224 94.187 74.0224 94.1606 74.0224 94.1343C74.0224 94.1079 74.0464 94.0183 74.0544 93.9604V93.9129C74.0544 93.876 74.0544 93.8418 74.0544 93.8049V93.7285C74.0544 93.6468 74.0544 93.5677 74.0544 93.4887C74.086 93.1885 74.0496 92.8851 73.9477 92.6006Z" fill="url(#paint29_linear_42_13548)"/>
<mask id="mask0_42_13548" style="mask-type:luminance" maskUnits="userSpaceOnUse" x="67" y="99" width="2" height="1">
<path d="M68.8389 99.9793L67.7317 99.3416C67.6813 99.3142 67.6323 99.2843 67.585 99.252L68.6921 99.887C68.7401 99.9055 68.7882 99.9371 68.8389 99.9793Z" fill="white"/>
</mask>
<g mask="url(#mask0_42_13548)">
<path d="M68.8389 99.9793L67.7317 99.3416C67.6813 99.3142 67.6323 99.2843 67.585 99.252L68.6921 99.887C68.7401 99.9187 68.7882 99.9503 68.8389 99.9793Z" fill="#41606D"/>
</g>
<mask id="mask1_42_13548" style="mask-type:luminance" maskUnits="userSpaceOnUse" x="73" y="88" width="3" height="2">
<path d="M73.916 88.8273L75.0231 89.4624C74.9617 89.4276 74.8984 89.3959 74.8337 89.3675L73.7266 88.7324C73.7918 88.7598 73.8551 88.7915 73.916 88.8273Z" fill="white"/>
</mask>
<g mask="url(#mask1_42_13548)">
<path d="M74.8337 89.3675L73.7266 88.7324C73.7838 88.7554 73.8391 88.7827 73.892 88.8141L74.9991 89.4492C74.9456 89.4188 74.8904 89.3916 74.8337 89.3675Z" fill="#507686"/>
<path d="M74.9988 89.4388L73.8916 88.8037L73.9156 88.8169L75.0228 89.452H74.9988" fill="#4E7382"/>
</g>
<path d="M66.6111 100.056L65.5039 99.4209L66.6778 97.9795L67.7849 98.6146L66.6111 100.056Z" fill="#007E93"/>
<path d="M67.5208 101.316L66.4136 100.681L65.5039 99.4209L66.6111 100.056L67.5208 101.316Z" fill="#005E68"/>
<path d="M73.2703 89.2335L72.1631 88.5958L72.8381 86.875L73.9452 87.5101L73.2703 89.2335Z" fill="#007E93"/>
<path d="M73.9451 87.5101L72.8379 86.875L74.4039 87.0068L75.5111 87.6445L73.9451 87.5101Z" fill="#33D9FF"/>
<path d="M67.7846 98.6142L66.6774 97.9791C66.6274 97.8351 66.5864 97.6881 66.5547 97.5391L67.6618 98.1742C67.6932 98.3233 67.7342 98.4703 67.7846 98.6142Z" fill="#005E68"/>
<mask id="mask2_42_13548" style="mask-type:luminance" maskUnits="userSpaceOnUse" x="66" y="97" width="2" height="2">
<path d="M67.7846 98.6142L66.6774 97.9791C66.6274 97.8351 66.5864 97.6881 66.5547 97.5391L67.6618 98.1742C67.6932 98.3233 67.7342 98.4703 67.7846 98.6142Z" fill="white"/>
</mask>
<g mask="url(#mask2_42_13548)">
<path d="M67.7846 98.6142L66.6774 97.9791C66.6274 97.8351 66.5864 97.6881 66.5547 97.5391L67.6618 98.1742C67.6932 98.3233 67.7342 98.4703 67.7846 98.6142Z" fill="#005E68"/>
</g>
<path d="M72.8132 89.3513L71.7061 88.7162C71.8528 88.6676 72.0025 88.628 72.1543 88.5977L73.2614 89.2327C73.1097 89.2631 72.96 89.3027 72.8132 89.3513Z" fill="#33D9FF"/>
<mask id="mask3_42_13548" style="mask-type:luminance" maskUnits="userSpaceOnUse" x="71" y="88" width="3" height="2">
<path d="M72.8132 89.3513L71.7061 88.7162C71.8528 88.6676 72.0025 88.628 72.1543 88.5977L73.2614 89.2327C73.1097 89.2631 72.96 89.3027 72.8132 89.3513Z" fill="white"/>
</mask>
<g mask="url(#mask3_42_13548)">
<path d="M72.8132 89.3511L71.7061 88.716L71.9302 88.6475L73.0373 89.2852C72.9626 89.3036 72.8879 89.3273 72.8132 89.3511Z" fill="#33D9FF"/>
<path d="M73.0427 89.2854L71.9355 88.6477C72.0129 88.6293 72.0876 88.6108 72.1596 88.5977L73.2668 89.2327C73.1948 89.2327 73.1201 89.2644 73.0427 89.2854Z" fill="#33D9FF"/>
</g>
<path d="M67.657 96.124L66.5498 95.4889C66.5792 95.2965 66.6218 95.1015 66.6699 94.9092L67.777 95.5443C67.729 95.7393 67.689 95.9316 67.657 96.124Z" fill="#005E68"/>
<mask id="mask4_42_13548" style="mask-type:luminance" maskUnits="userSpaceOnUse" x="66" y="94" width="2" height="3">
<path d="M67.657 96.124L66.5498 95.4889C66.5792 95.2965 66.6218 95.1015 66.6699 94.9092L67.777 95.5443C67.729 95.7393 67.689 95.9316 67.657 96.124Z" fill="white"/>
</mask>
<g mask="url(#mask4_42_13548)">
<path d="M67.657 96.1239L66.5498 95.4889C66.5685 95.3703 66.5898 95.2543 66.6165 95.1357L67.7237 95.7708C67.697 95.8894 67.6756 96.0054 67.657 96.1239Z" fill="#005E68"/>
<path d="M67.7234 95.7631L66.6162 95.128C66.6322 95.0516 66.6509 94.9752 66.6696 94.9014L67.7767 95.5365C67.7581 95.6129 67.7394 95.6867 67.7234 95.7631Z" fill="#005E68"/>
</g>
<path d="M70.5622 90.7748L69.4551 90.1397C69.6018 90.0027 69.7512 89.8762 69.9033 89.7471L71.0131 90.3821C70.8584 90.506 70.709 90.6378 70.5622 90.7748Z" fill="#005E68"/>
<mask id="mask5_42_13548" style="mask-type:luminance" maskUnits="userSpaceOnUse" x="69" y="89" width="3" height="2">
<path d="M70.5622 90.7748L69.4551 90.1397C69.6018 90.0027 69.7512 89.8762 69.9033 89.7471L71.0131 90.3821C70.8584 90.506 70.709 90.6378 70.5622 90.7748Z" fill="white"/>
</mask>
<g mask="url(#mask5_42_13548)">
<path d="M70.5622 90.7748L69.4551 90.1397C69.6018 90.0027 69.7512 89.8762 69.9033 89.7471L71.0131 90.3821C70.8584 90.506 70.709 90.6457 70.5622 90.7748Z" fill="#005E68"/>
</g>
<path d="M68.6736 93.254L67.5664 92.6189C67.6713 92.4257 67.7807 92.2386 67.8946 92.0576L69.0017 92.6927C68.887 92.8772 68.7776 93.0616 68.6736 93.254Z" fill="#005E68"/>
<mask id="mask6_42_13548" style="mask-type:luminance" maskUnits="userSpaceOnUse" x="67" y="92" width="3" height="2">
<path d="M68.6736 93.254L67.5664 92.6189C67.6713 92.4257 67.7807 92.2386 67.8946 92.0576L69.0017 92.6927C68.887 92.8772 68.7776 93.0616 68.6736 93.254Z" fill="white"/>
</mask>
<g mask="url(#mask6_42_13548)">
<path d="M68.6736 93.254L67.5664 92.619C67.6251 92.5109 67.6838 92.4055 67.7452 92.3027L68.8523 92.9378C68.791 93.0406 68.7323 93.146 68.6736 93.254Z" fill="#005E68"/>
<path d="M68.8523 92.9378L67.7451 92.3027C67.7958 92.2184 67.8438 92.1367 67.8945 92.0576L69.0017 92.6927L68.8523 92.9378Z" fill="#005E68"/>
</g>
<path d="M66.3039 98.9463L65.1967 98.3112L65.1914 96.2637L66.2986 96.8988L66.3039 98.9463Z" fill="#005E68"/>
<path d="M66.2986 96.8991L65.1914 96.264L66.5493 95.4893L67.6565 96.1243L66.2986 96.8991Z" fill="#007E93"/>
<path d="M71.0076 88.8403L69.9004 88.2052L71.7065 87.1748L72.8137 87.8099L71.0076 88.8403Z" fill="#33D9FF"/>
<path d="M71.0129 90.3818L69.9057 89.7467L69.9004 88.2051L71.0076 88.8402L71.0129 90.3818Z" fill="#007E93"/>
<path d="M67.4968 93.1543L66.3896 92.5166L67.5662 92.6194L68.6733 93.2545L67.4968 93.1543Z" fill="#33D9FF"/>
<path d="M66.5974 95.4443L65.4902 94.8066L66.3893 92.5166L67.4965 93.1543L66.5974 95.4443Z" fill="#007E93"/>
<path d="M77.5594 92.5298L76.2015 93.3046C76.1695 93.4943 76.1294 93.6893 76.0814 93.8817L77.2606 93.9818L76.3615 96.2718L75.185 96.1717C75.081 96.364 74.9716 96.5485 74.8542 96.7356L75.5399 97.6816L73.9792 99.6001L73.2935 98.6514C73.1494 98.7884 72.9974 98.9149 72.8453 99.044V100.586L71.0392 101.616V100.074C70.8915 100.123 70.7409 100.163 70.5883 100.193L69.9133 101.916L68.3473 101.785L69.0223 100.061C68.9071 100.008 68.7965 99.945 68.6914 99.8741L67.5176 101.316L66.6105 100.056L67.7844 98.6145C67.734 98.4705 67.693 98.3236 67.6617 98.1744L66.3037 98.9492V96.899L67.6617 96.1242C67.6937 95.9319 67.7337 95.7395 67.7817 95.5445L66.6025 95.4444L67.4989 93.1544L68.6781 93.2545C68.7822 93.0621 68.8915 92.8777 69.0063 92.6932L68.3233 91.7445L69.884 89.8287L70.567 90.7748C70.7137 90.6378 70.8631 90.5113 71.0178 90.3821V88.8405L72.824 87.8102V89.3518C72.9707 89.3031 73.1204 89.2635 73.2722 89.2332L73.9498 87.5098L75.5158 87.6442L74.8382 89.3676C74.9549 89.4187 75.0666 89.4804 75.1717 89.552L76.3429 88.1106L77.2526 89.3702L76.0788 90.8117C76.1291 90.9565 76.1701 91.1044 76.2015 91.2544L77.5594 90.4796V92.5298ZM71.9356 97.202C73.1468 96.5116 74.1259 94.8304 74.1205 93.4627C74.1152 92.095 73.1334 91.5337 71.9196 92.2241C70.7057 92.9146 69.7319 94.5958 69.7346 95.9635C69.7372 97.3312 70.7244 97.8925 71.9356 97.202Z" fill="url(#paint30_linear_42_13548)"/>
<path d="M69.0037 92.6931L67.8966 92.058L67.2109 91.1094L68.3181 91.7445L69.0037 92.6931Z" fill="#007E93"/>
<path d="M68.3181 91.7442L67.2109 91.1091L68.7716 89.1934L69.8788 89.8284L68.3181 91.7442Z" fill="#33D9FF"/>
<path d="M91.4486 81.588L90.5709 81.0821L90.0293 80.3311L90.907 80.8344L91.4486 81.588Z" fill="#004A5B"/>
<path d="M93.116 77.0531L92.2383 76.5498L93.1747 76.6289L94.0524 77.1322L93.116 77.0531Z" fill="#0182B4"/>
<path d="M89.1223 83.188L88.2419 82.682L88.2393 81.4619L89.117 81.9652L89.1223 83.188Z" fill="#004A5B"/>
<path d="M93.2068 74.9689L92.3291 74.4656L93.4069 73.8516L94.2847 74.3549L93.2068 74.9689Z" fill="#005F7C"/>
<path d="M86.9822 83.3202L86.1045 82.8169L86.6407 81.4492L87.5185 81.9552L86.9822 83.3202Z" fill="#004A5B"/>
<path d="M92.3904 73.6197L91.5127 73.1163L92.4438 71.9727L93.3215 72.476L92.3904 73.6197Z" fill="#005F7C"/>
<path d="M91.4251 76.0359C91.3485 75.8623 91.2189 75.7167 91.0542 75.6195L90.1765 75.1162C90.4887 75.2954 90.6834 75.6749 90.6834 76.2177C90.6834 76.281 90.6834 76.3442 90.6834 76.4075C90.6847 76.4276 90.6847 76.4479 90.6834 76.4681C90.6834 76.5102 90.6834 76.5498 90.6674 76.5919C90.6618 76.638 90.6538 76.6837 90.6434 76.729C90.6434 76.7606 90.6434 76.7896 90.6247 76.8212C90.606 76.8528 90.6114 76.8818 90.6034 76.9108L90.5714 77.032C90.563 77.0553 90.5559 77.0791 90.55 77.1032L90.502 77.2402C90.496 77.2599 90.4889 77.2793 90.4807 77.2982C90.4566 77.3614 90.4326 77.4247 90.406 77.4853C90.4049 77.4931 90.4049 77.5011 90.406 77.509L90.3259 77.675C90.3181 77.6922 90.3092 77.7089 90.2992 77.7251C90.2726 77.7778 90.2432 77.8278 90.2139 77.8805L90.1979 77.9095C90.1632 77.9701 90.1258 78.0281 90.0885 78.0861C90.0778 78.1034 90.0663 78.1201 90.0538 78.1361C90.0271 78.1783 89.9978 78.2178 89.9684 78.2574L89.9204 78.3233L89.843 78.4208L89.7737 78.5024C89.7529 78.5283 89.7306 78.5529 89.707 78.5762C89.6696 78.6184 89.6323 78.6606 89.5923 78.7001L89.5176 78.7712L89.4589 78.8266C89.4268 78.8556 89.3948 78.8845 89.3602 78.9109L89.3015 78.961C89.2668 78.9873 89.2294 79.0163 89.1921 79.04L89.1387 79.0796C89.0854 79.1164 89.0293 79.1507 88.9733 79.1823C88.9216 79.2126 88.8682 79.2399 88.8132 79.264L88.7732 79.2825C88.7247 79.3056 88.6748 79.3258 88.6238 79.3431L88.4984 79.3773L88.4264 79.3931L88.3357 79.4063H88.2823H88.1463C88.1033 79.404 88.0605 79.3987 88.0182 79.3905H87.9862L87.8902 79.3642H87.8608C87.8214 79.3493 87.783 79.3317 87.7461 79.3115L88.6265 79.8148L88.7145 79.8569H88.7305H88.7599L88.8052 79.8728H88.8559H88.8879H88.9039H89.008H89.1254H89.1521H89.2054H89.2534H89.2961L89.3682 79.8596H89.4055L89.4962 79.8332C89.5326 79.8224 89.5683 79.8092 89.6029 79.7937L89.6456 79.7752L89.6883 79.7568L89.8457 79.6751L90.0138 79.5697L90.0645 79.5328C90.1018 79.5065 90.1392 79.4801 90.1739 79.4511L90.2352 79.401L90.3313 79.3167L90.3899 79.264L90.4273 79.2298L90.4646 79.1902L90.582 79.069L90.6194 79.0295L90.6461 78.9952L90.7154 78.9135L90.7581 78.8582C90.7711 78.8444 90.7827 78.8294 90.7928 78.8134L90.8408 78.7502L90.8755 78.7054L90.9289 78.6263L90.9609 78.5762L90.9769 78.5552L91.0649 78.4102L91.0836 78.3812C91.1023 78.347 91.1236 78.3127 91.1423 78.2758L91.1663 78.2258C91.1762 78.2096 91.1851 78.1929 91.193 78.1757L91.217 78.1309L91.273 78.0097V77.9886L91.337 77.8357C91.3359 77.8261 91.3359 77.8164 91.337 77.8067C91.337 77.7883 91.3504 77.7699 91.3557 77.7514C91.361 77.733 91.3771 77.6987 91.3851 77.6724C91.3931 77.646 91.3851 77.6328 91.4037 77.6117C91.4224 77.5907 91.4171 77.5643 91.4251 77.5432C91.4259 77.5283 91.4259 77.5134 91.4251 77.4984C91.4251 77.4721 91.4384 77.4457 91.4438 77.4194L91.4678 77.3324C91.4678 77.3324 91.4678 77.3113 91.4678 77.3008C91.4678 77.2903 91.4678 77.2586 91.4811 77.2376L91.5051 77.1005C91.5036 77.0883 91.5036 77.0759 91.5051 77.0636V76.9767C91.5065 76.9565 91.5065 76.9362 91.5051 76.9161C91.5051 76.8528 91.5051 76.7896 91.5051 76.7263C91.5299 76.4932 91.5026 76.2575 91.4251 76.0359Z" fill="#004A5B"/>
<mask id="mask7_42_13548" style="mask-type:luminance" maskUnits="userSpaceOnUse" x="86" y="81" width="2" height="1">
<path d="M87.3694 81.8779L86.4917 81.3746L86.377 81.3008L87.2547 81.8067C87.2917 81.8323 87.33 81.8561 87.3694 81.8779Z" fill="white"/>
</mask>
<g mask="url(#mask7_42_13548)">
<path d="M87.3694 81.8779L86.4917 81.3746L86.377 81.3008L87.2547 81.8067C87.2917 81.8323 87.33 81.8561 87.3694 81.8779Z" fill="#41606D"/>
</g>
<mask id="mask8_42_13548" style="mask-type:luminance" maskUnits="userSpaceOnUse" x="91" y="72" width="2" height="2">
<path d="M91.3984 73.0452L92.2761 73.5485L92.1267 73.4721L91.249 72.9688C91.3002 72.9916 91.35 73.0171 91.3984 73.0452Z" fill="white"/>
</mask>
<g mask="url(#mask8_42_13548)">
<path d="M92.1267 73.4721L91.249 72.9688L91.3797 73.0346L92.2575 73.538L92.1267 73.4721Z" fill="#507686"/>
<path d="M92.2576 73.5375L91.3799 73.0342H91.3986L92.2763 73.5375H92.2576Z" fill="#4E7382"/>
</g>
<path d="M85.606 81.9524L84.7256 81.4464L85.6567 80.3027L86.5371 80.8061L85.606 81.9524Z" fill="#005F7C"/>
<path d="M86.3263 82.951L85.4486 82.445L84.7256 81.4463L85.606 81.9522L86.3263 82.951Z" fill="#004A5B"/>
<path d="M90.8855 73.3671L90.0078 72.8638L90.5441 71.4961L91.4218 72.0021L90.8855 73.3671Z" fill="#005F7C"/>
<path d="M91.4217 72.0011L90.5439 71.4951L91.7845 71.6005L92.6622 72.1065L91.4217 72.0011Z" fill="#0182B4"/>
<path d="M86.5343 80.8079L85.6566 80.3019C85.6167 80.1883 85.5846 80.072 85.5605 79.9541L86.4383 80.4574C86.4636 80.5759 86.4957 80.6929 86.5343 80.8079Z" fill="#004A5B"/>
<mask id="mask9_42_13548" style="mask-type:luminance" maskUnits="userSpaceOnUse" x="85" y="79" width="2" height="2">
<path d="M86.5343 80.8079L85.6566 80.3019C85.6167 80.1883 85.5846 80.072 85.5605 79.9541L86.4383 80.4574C86.4636 80.5759 86.4957 80.6929 86.5343 80.8079Z" fill="white"/>
</mask>
<g mask="url(#mask9_42_13548)">
<path d="M86.5343 80.8079L85.6566 80.3019C85.6167 80.1883 85.5846 80.072 85.5605 79.9541L86.4383 80.4574C86.4636 80.5759 86.4957 80.6929 86.5343 80.8079Z" fill="#004A5B"/>
</g>
<path d="M90.5281 73.4615L89.6504 72.9581C89.7664 72.9186 89.8849 72.8869 90.0052 72.8633L90.8829 73.3666C90.7629 73.3915 90.6445 73.4232 90.5281 73.4615Z" fill="#0182B4"/>
<mask id="mask10_42_13548" style="mask-type:luminance" maskUnits="userSpaceOnUse" x="89" y="72" width="2" height="2">
<path d="M90.5281 73.4615L89.6504 72.9581C89.7664 72.9186 89.8849 72.8869 90.0052 72.8633L90.8829 73.3666C90.7629 73.3915 90.6445 73.4232 90.5281 73.4615Z" fill="white"/>
</mask>
<g mask="url(#mask10_42_13548)">
<path d="M90.5281 73.461L89.6504 72.9577C89.7091 72.9366 89.7704 72.9182 89.8291 72.9023L90.7069 73.4083L90.5281 73.461Z" fill="#0182B4"/>
<path d="M90.7068 73.4088L89.8291 72.9028C89.8878 72.887 89.9465 72.8738 90.0052 72.8633L90.8829 73.3666C90.8269 73.3666 90.7655 73.393 90.7068 73.4088Z" fill="#0182B4"/>
</g>
<path d="M86.4334 78.8317L85.5557 78.3283C85.5797 78.1755 85.6117 78.0227 85.6517 77.8672L86.5294 78.3731C86.4921 78.526 86.4601 78.6788 86.4334 78.8317Z" fill="#004A5B"/>
<mask id="mask11_42_13548" style="mask-type:luminance" maskUnits="userSpaceOnUse" x="85" y="77" width="2" height="2">
<path d="M86.4334 78.8317L85.5557 78.3283C85.5797 78.1755 85.6117 78.0227 85.6517 77.8672L86.5294 78.3731C86.4921 78.526 86.4601 78.6788 86.4334 78.8317Z" fill="white"/>
</mask>
<g mask="url(#mask11_42_13548)">
<path d="M86.4334 78.8315L85.5557 78.3282C85.5717 78.2359 85.5877 78.1411 85.609 78.0488L86.4867 78.5522C86.4681 78.6444 86.4494 78.7393 86.4334 78.8315Z" fill="#004A5B"/>
<path d="M86.4871 78.5523L85.6094 78.049C85.6227 77.9884 85.6361 77.9278 85.6521 77.8672L86.5298 78.3731C86.5138 78.4311 86.5004 78.4917 86.4871 78.5523Z" fill="#004A5B"/>
</g>
<path d="M88.7381 74.5897L87.8604 74.0863C87.9777 73.9783 88.0951 73.8729 88.2178 73.7754L89.0956 74.2787C88.9729 74.3762 88.8555 74.4816 88.7381 74.5897Z" fill="#004A5B"/>
<mask id="mask12_42_13548" style="mask-type:luminance" maskUnits="userSpaceOnUse" x="87" y="73" width="3" height="2">
<path d="M88.7381 74.5897L87.8604 74.0863C87.9777 73.9783 88.0951 73.8729 88.2178 73.7754L89.0956 74.2787C88.9729 74.3762 88.8555 74.4816 88.7381 74.5897Z" fill="white"/>
</mask>
<g mask="url(#mask12_42_13548)">
<path d="M88.7381 74.5897L87.8604 74.0863C87.9777 73.9783 88.0951 73.8729 88.2178 73.7754L89.0956 74.2787C88.9729 74.3762 88.8555 74.4816 88.7381 74.5897Z" fill="#004A5B"/>
</g>
<path d="M87.2417 76.5551L86.3613 76.0518C86.444 75.9016 86.5321 75.7514 86.6281 75.6064L87.5058 76.1098C87.4098 76.2626 87.3244 76.4049 87.2417 76.5551Z" fill="#004A5B"/>
<mask id="mask13_42_13548" style="mask-type:luminance" maskUnits="userSpaceOnUse" x="86" y="75" width="2" height="2">
<path d="M87.2417 76.5551L86.3613 76.0518C86.444 75.9016 86.5321 75.7514 86.6281 75.6064L87.5058 76.1098C87.4098 76.2626 87.3244 76.4049 87.2417 76.5551Z" fill="white"/>
</mask>
<g mask="url(#mask13_42_13548)">
<path d="M87.2417 76.5554L86.3613 76.0521L86.5054 75.8018L87.3831 76.3051C87.3351 76.3868 87.2871 76.4711 87.2417 76.5554Z" fill="#004A5B"/>
<path d="M87.3836 76.3048L86.5059 75.8014C86.5432 75.7356 86.5832 75.6723 86.6232 75.6064L87.501 76.1098C87.4609 76.1756 87.4209 76.2389 87.3836 76.3048Z" fill="#004A5B"/>
</g>
<path d="M85.3635 81.0716L84.4831 80.5683L84.4805 78.9424L85.3582 79.4457L85.3635 81.0716Z" fill="#004A5B"/>
<path d="M85.3582 79.4464L84.4805 78.9431L85.5556 78.3291L86.4333 78.8324L85.3582 79.4464Z" fill="#005F7C"/>
<path d="M89.0926 73.0553L88.2148 72.552L89.6475 71.7324L90.5252 72.2384L89.0926 73.0553Z" fill="#0182B4"/>
<path d="M89.0952 74.2788L88.2175 73.7755L88.2148 72.5527L89.0926 73.0561L89.0952 74.2788Z" fill="#005F7C"/>
<path d="M86.3081 76.476L85.4277 75.9727L86.3642 76.0517L87.2419 76.555L86.3081 76.476Z" fill="#0182B4"/>
<path d="M85.5926 78.2916L84.7148 77.7883L85.4272 75.9727L86.3076 76.476L85.5926 78.2916Z" fill="#005F7C"/>
<path d="M94.2871 75.9811L93.2199 76.5951C93.1959 76.748 93.1639 76.9008 93.1266 77.0536L94.063 77.1353L93.348 78.951L92.4143 78.8693C92.3315 79.0221 92.2462 79.1697 92.1475 79.3173L92.681 80.0683L91.4432 81.5888L90.9096 80.8378C90.7922 80.9458 90.6721 81.0512 90.5521 81.1487V82.3715L89.1194 83.1884V81.9656C89.0023 82.0043 88.8829 82.036 88.7619 82.0605L88.2284 83.4282L86.9878 83.3228L87.5214 81.9551C87.4284 81.9134 87.3392 81.864 87.2546 81.8075L86.3235 82.9512L85.6032 81.9525L86.5343 80.8088C86.4956 80.6938 86.4636 80.5768 86.4382 80.4583L85.3711 81.0723V79.4464L86.4382 78.8324C86.4649 78.6796 86.4969 78.5267 86.5343 78.3739L85.5979 78.2922L86.3102 76.4765L87.2466 76.5556C87.3293 76.4054 87.4147 76.2578 87.5134 76.1102L86.9798 75.3592L88.2177 73.8387L88.7513 74.5897C88.8687 74.4817 88.986 74.3763 89.1088 74.2788V73.056L90.5441 72.2391V73.4619C90.6604 73.4235 90.7789 73.3919 90.8989 73.367L91.4325 72.002L92.6757 72.1074L92.1421 73.4724C92.2348 73.5147 92.324 73.564 92.4089 73.62L93.3373 72.4763L94.0603 73.475L93.1266 74.6187C93.1674 74.7332 93.2003 74.8503 93.2253 74.9692L94.2924 74.3552L94.2871 75.9811ZM89.8264 79.6888C90.3321 79.3646 90.7529 78.9267 91.0543 78.411C91.3557 77.8952 91.5292 77.3163 91.5605 76.7216C91.5605 75.6306 90.7762 75.1932 89.8158 75.7387C89.3104 76.063 88.89 76.501 88.589 77.0168C88.2881 77.5325 88.1151 78.1114 88.0843 78.7059C88.0843 79.7942 88.8687 80.2343 89.8264 79.6888Z" fill="#007AA0"/>
<path d="M87.503 76.1098L86.6226 75.6065L86.0811 74.8555L86.9588 75.3588L87.503 76.1098Z" fill="#005F7C"/>
<path d="M86.9588 75.3588L86.0811 74.8555L87.3189 73.335L88.1967 73.8383L86.9588 75.3588Z" fill="#0182B4"/>
<path d="M90.9845 105.73L89.085 104.639L87.9111 103.013L89.8107 104.104L90.9845 105.73Z" fill="#3C8196"/>
<path d="M94.5939 95.9191L92.6943 94.8281L94.7192 95.002L96.6188 96.0904L94.5939 95.9191Z" fill="#E1F5FF"/>
<path d="M85.9476 109.192L84.048 108.101L84.04 105.455L85.9422 106.546L85.9476 109.192Z" fill="#3C8196"/>
<path d="M94.7892 91.41L92.8896 90.3191L95.2214 88.9883L97.1209 90.0792L94.7892 91.41Z" fill="#6BA9C1"/>
<path d="M81.3211 109.479L79.4189 108.388L80.5795 105.432L82.4817 106.523L81.3211 109.479Z" fill="#3C8196"/>
<path d="M93.0226 88.4873L91.123 87.3963L93.1373 84.9219L95.0368 86.0128L93.0226 88.4873Z" fill="#6BA9C1"/>
<path d="M90.9335 93.7132C90.7667 93.3394 90.4872 93.0256 90.1332 92.8146L88.2337 91.7236C88.9086 92.1136 89.3275 92.9385 89.3328 94.1085C89.3328 94.2455 89.3328 94.372 89.3141 94.5196C89.3141 94.5644 89.3141 94.6065 89.3141 94.6513C89.3141 94.7409 89.2928 94.8305 89.2795 94.9149C89.2661 94.9992 89.2475 95.1099 89.2288 95.21C89.2101 95.3101 89.2048 95.3444 89.1888 95.4129C89.1728 95.4814 89.1567 95.5394 89.1407 95.6026C89.1247 95.6659 89.0954 95.7792 89.0687 95.8662C89.042 95.9531 89.0394 95.9663 89.0233 96.019C88.9913 96.1165 88.9567 96.2166 88.922 96.3168C88.906 96.3563 88.8926 96.3985 88.8766 96.438C88.8259 96.575 88.7699 96.7015 88.7112 96.8465C88.703 96.8618 88.6959 96.8776 88.6899 96.8939C88.6338 97.0151 88.5778 97.1337 88.5165 97.2549L88.4604 97.3656C88.4017 97.4763 88.3404 97.5896 88.2764 97.7003L88.239 97.7635C88.1643 97.8926 88.0843 98.027 88.0042 98.143L87.9295 98.2537C87.8682 98.3406 87.8068 98.4302 87.7428 98.5172L87.6387 98.6568L87.4707 98.8703L87.3239 99.0469L87.1799 99.2076C87.0972 99.2972 87.0145 99.3868 86.9291 99.4711L86.769 99.6292L86.6409 99.7478C86.5716 99.8111 86.4996 99.8717 86.4302 99.9296L86.2995 100.035C86.2221 100.098 86.1421 100.156 86.0647 100.212L85.95 100.293C85.8326 100.375 85.7125 100.449 85.5898 100.52C85.4671 100.591 85.3604 100.644 85.2457 100.696L85.1576 100.736C85.0482 100.783 84.9388 100.828 84.8321 100.865H84.8135C84.7201 100.897 84.6294 100.918 84.5467 100.942L84.3919 100.973C84.3259 100.987 84.2591 100.996 84.1918 101.002L84.0798 101.015C83.9971 101.015 83.9171 101.015 83.837 101.015H83.7837C83.694 101.01 83.6048 100.999 83.5169 100.981C83.4943 100.977 83.472 100.972 83.4502 100.965C83.3796 100.95 83.3101 100.931 83.2421 100.907L83.1781 100.886C83.0935 100.853 83.0115 100.815 82.9326 100.77L84.8321 101.861H84.8535C84.9144 101.896 84.9777 101.927 85.0429 101.953H85.0803L85.1443 101.975L85.2403 102.009L85.3497 102.033L85.4164 102.048H85.4538C85.5288 102.061 85.6045 102.07 85.6805 102.075H85.7472C85.8086 102.075 85.8673 102.075 85.9286 102.075H85.99H86.1047C86.1393 102.077 86.1741 102.077 86.2088 102.075C86.2408 102.075 86.2728 102.075 86.3021 102.056L86.4569 102.025L86.5396 102.006C86.6036 101.99 86.6676 101.969 86.7317 101.948H86.7503L86.9824 101.861L87.0758 101.819L87.1639 101.78C87.2786 101.724 87.3933 101.669 87.5107 101.603C87.6281 101.537 87.7508 101.455 87.8682 101.376L87.9829 101.295C88.0629 101.237 88.1403 101.181 88.2203 101.118L88.3484 101.013C88.4204 100.955 88.4898 100.894 88.5618 100.831L88.6872 100.712L88.7672 100.639C88.7966 100.612 88.8206 100.583 88.8473 100.554C88.9326 100.47 89.018 100.38 89.098 100.291C89.1247 100.262 89.1541 100.235 89.1781 100.206L89.2421 100.13C89.2928 100.072 89.3408 100.014 89.3888 99.9534L89.4849 99.84C89.5089 99.8058 89.5329 99.7715 89.5596 99.7399L89.6636 99.6002L89.7357 99.5027L89.8504 99.3341L89.9224 99.226C89.9337 99.2121 89.9435 99.1971 89.9518 99.1812C90.0211 99.0785 90.0852 98.9731 90.1465 98.8677L90.1599 98.8466L90.1945 98.7833C90.2399 98.7069 90.2826 98.6305 90.3253 98.5541L90.3786 98.4487L90.4373 98.3353L90.4853 98.2378C90.528 98.1509 90.568 98.0639 90.6081 97.9743C90.6141 97.958 90.6212 97.9422 90.6294 97.9269C90.6801 97.8162 90.7254 97.7055 90.7681 97.5922C90.7768 97.5726 90.784 97.5523 90.7895 97.5316C90.8055 97.4921 90.8215 97.4499 90.8348 97.4104C90.8482 97.3709 90.8775 97.2971 90.8962 97.2417L90.9362 97.1126L90.9842 96.9598C90.9842 96.9255 91.0029 96.8939 91.0136 96.8623C91.0242 96.8306 91.0403 96.749 91.0563 96.6936C91.0723 96.6383 91.0883 96.5671 91.1016 96.5039C91.115 96.4406 91.115 96.4591 91.1176 96.438C91.1203 96.4169 91.1336 96.3458 91.1416 96.301C91.163 96.2008 91.179 96.1033 91.195 96.0032C91.195 95.9768 91.195 95.9478 91.195 95.9215C91.195 95.8951 91.2083 95.8003 91.2137 95.737C91.219 95.6738 91.2137 95.6501 91.227 95.6053C91.2377 95.4682 91.243 95.3312 91.243 95.1942C91.2486 94.6843 91.143 94.1792 90.9335 93.7132Z" fill="url(#paint31_linear_42_13548)"/>
<mask id="mask14_42_13548" style="mask-type:luminance" maskUnits="userSpaceOnUse" x="80" y="105" width="3" height="2">
<path d="M82.1513 106.36L80.2518 105.269C80.1664 105.221 80.0837 105.169 80.001 105.113L81.9005 106.204C81.9939 106.26 82.0766 106.304 82.1513 106.36Z" fill="white"/>
</mask>
<g mask="url(#mask14_42_13548)">
<path d="M82.1513 106.36L80.2518 105.269C80.1664 105.221 80.0837 105.169 80.001 105.113L81.9005 106.204C81.9832 106.26 82.0659 106.312 82.1513 106.36Z" fill="#41606D"/>
</g>
<mask id="mask15_42_13548" style="mask-type:luminance" maskUnits="userSpaceOnUse" x="90" y="87" width="3" height="2">
<path d="M90.8782 87.2435L92.7777 88.3344C92.6735 88.2737 92.5657 88.2192 92.4549 88.1711L90.5527 87.0801C90.6644 87.1282 90.7731 87.1828 90.8782 87.2435Z" fill="white"/>
</mask>
<g mask="url(#mask15_42_13548)">
<path d="M92.4549 88.1711L90.5527 87.0801C90.6493 87.1219 90.7437 87.1685 90.8355 87.2197L92.7377 88.3107C92.6443 88.2607 92.551 88.2132 92.4549 88.1711Z" fill="#507686"/>
<path d="M92.7381 88.3107L90.8359 87.2197L90.8786 87.2435L92.7781 88.3344L92.7381 88.3107Z" fill="#4E7382"/>
</g>
<path d="M78.339 106.517L76.4395 105.426L78.4537 102.949L80.3559 104.04L78.339 106.517Z" fill="#6BA9C1"/>
<path d="M79.8997 108.679L77.9975 107.588L76.4395 105.427L78.339 106.518L79.8997 108.679Z" fill="#3C8196"/>
<path d="M89.7657 87.9396L87.8662 86.8486L89.0267 83.8945L90.9263 84.9855L89.7657 87.9396Z" fill="#6BA9C1"/>
<path d="M90.9259 84.9855L89.0264 83.8945L91.7129 84.1212L93.6151 85.2121L90.9259 84.9855Z" fill="#E1F5FF"/>
<path d="M80.3534 104.041L78.4539 102.95C78.3676 102.702 78.2972 102.45 78.2432 102.193L80.1427 103.284C80.1967 103.541 80.2671 103.793 80.3534 104.041Z" fill="#3C8196"/>
<mask id="mask16_42_13548" style="mask-type:luminance" maskUnits="userSpaceOnUse" x="78" y="102" width="3" height="3">
<path d="M80.3534 104.041L78.4539 102.95C78.3676 102.702 78.2972 102.45 78.2432 102.193L80.1427 103.284C80.1967 103.541 80.2671 103.793 80.3534 104.041Z" fill="white"/>
</mask>
<g mask="url(#mask16_42_13548)">
<path d="M80.3534 104.041L78.4539 102.95C78.3676 102.702 78.2972 102.45 78.2432 102.193L80.1427 103.284C80.1967 103.541 80.2671 103.793 80.3534 104.041Z" fill="#3C8196"/>
</g>
<path d="M88.994 88.1451L87.0918 87.0542C87.3443 86.9702 87.6018 86.9015 87.8628 86.8486L89.765 87.9396C89.5039 87.9922 89.2464 88.0609 88.994 88.1451Z" fill="#E1F5FF"/>
<mask id="mask17_42_13548" style="mask-type:luminance" maskUnits="userSpaceOnUse" x="87" y="86" width="3" height="3">
<path d="M88.994 88.1451L87.0918 87.0542C87.3443 86.9702 87.6018 86.9015 87.8628 86.8486L89.765 87.9396C89.5039 87.9922 89.2464 88.0609 88.994 88.1451Z" fill="white"/>
</mask>
<g mask="url(#mask17_42_13548)">
<path d="M88.994 88.1454L87.0918 87.0544C87.2225 87.0123 87.3586 86.9727 87.4786 86.9385L89.3782 88.0294C89.2528 88.0637 89.1114 88.1032 88.994 88.1454Z" fill="#E1F5FF"/>
<path d="M89.378 88.0292L87.4785 86.9382C87.6092 86.904 87.7453 86.875 87.8627 86.8486L89.7649 87.9396C89.6368 87.966 89.4981 87.9949 89.378 88.0292Z" fill="#E1F5FF"/>
</g>
<path d="M80.1319 99.7687L78.2324 98.6777C78.2884 98.3457 78.3578 98.0137 78.4378 97.6816L80.34 98.7726C80.2582 99.1046 80.1889 99.4367 80.1319 99.7687Z" fill="#3C8196"/>
<mask id="mask18_42_13548" style="mask-type:luminance" maskUnits="userSpaceOnUse" x="78" y="97" width="3" height="3">
<path d="M80.1319 99.7687L78.2324 98.6777C78.2884 98.3457 78.3578 98.0137 78.4378 97.6816L80.34 98.7726C80.2582 99.1046 80.1889 99.4367 80.1319 99.7687Z" fill="white"/>
</mask>
<g mask="url(#mask18_42_13548)">
<path d="M80.1319 99.7684L78.2324 98.6774C78.2671 98.4745 78.3045 98.2716 78.3498 98.0713L80.2493 99.1623C80.2066 99.3625 80.1666 99.5654 80.1319 99.7684Z" fill="#3C8196"/>
<path d="M80.2491 99.1626L78.3496 98.0716C78.3763 97.9399 78.4056 97.8081 78.4376 97.6816L80.3398 98.7726C80.3078 98.9017 80.2758 99.0361 80.2491 99.1626Z" fill="#3C8196"/>
</g>
<path d="M85.1229 90.5878L83.2207 89.4969C83.4715 89.2597 83.7303 89.0357 83.9917 88.8223L85.8912 89.9132C85.6191 90.1267 85.371 90.3507 85.1229 90.5878Z" fill="#3C8196"/>
<mask id="mask19_42_13548" style="mask-type:luminance" maskUnits="userSpaceOnUse" x="83" y="88" width="3" height="3">
<path d="M85.1229 90.5878L83.2207 89.4969C83.4715 89.2597 83.7303 89.0357 83.9917 88.8223L85.8912 89.9132C85.6191 90.1267 85.371 90.3507 85.1229 90.5878Z" fill="white"/>
</mask>
<g mask="url(#mask19_42_13548)">
<path d="M85.1229 90.5878L83.2207 89.4969C83.4715 89.2597 83.7303 89.0357 83.9917 88.8223L85.8912 89.9132C85.6244 90.1267 85.371 90.3507 85.1229 90.5878Z" fill="#3C8196"/>
</g>
<path d="M81.8849 94.8409L79.9854 93.7499C80.1641 93.4232 80.3508 93.1043 80.5483 92.7881L82.4505 93.8791C82.245 94.1953 82.0583 94.5141 81.8849 94.8409Z" fill="#3C8196"/>
<mask id="mask20_42_13548" style="mask-type:luminance" maskUnits="userSpaceOnUse" x="79" y="92" width="4" height="3">
<path d="M81.8849 94.8409L79.9854 93.7499C80.1641 93.4232 80.3508 93.1043 80.5483 92.7881L82.4505 93.8791C82.245 94.1953 82.0583 94.5141 81.8849 94.8409Z" fill="white"/>
</mask>
<g mask="url(#mask20_42_13548)">
<path d="M81.8849 94.8409L79.9854 93.7499C80.0841 93.5681 80.1881 93.3862 80.2948 93.207L82.1943 94.298C82.0876 94.4772 81.9862 94.659 81.8849 94.8409Z" fill="#3C8196"/>
<path d="M82.189 94.2981L80.2842 93.2071C80.3669 93.0674 80.4523 92.9278 80.551 92.7881L82.4532 93.8791C82.3642 94.0178 82.2753 94.1575 82.1864 94.2981" fill="#3C8196"/>
</g>
<path d="M77.8135 104.612L75.914 103.521L75.9033 100.006L77.8028 101.094L77.8135 104.612Z" fill="#3C8196"/>
<path d="M77.8028 101.094L75.9033 100.006L78.235 98.6748L80.1345 99.7658L77.8028 101.094Z" fill="#6BA9C1"/>
<path d="M85.8858 87.2674L83.9863 86.1764L87.0864 84.4082L88.9859 85.4992L85.8858 87.2674Z" fill="#E1F5FF"/>
<path d="M85.8938 89.9135L83.9917 88.8225L83.9863 86.1768L85.8858 87.2677L85.8938 89.9135Z" fill="#6BA9C1"/>
<path d="M79.8592 94.6665L77.957 93.5781L79.9793 93.7494L81.8815 94.8404L79.8592 94.6665Z" fill="#E1F5FF"/>
<path d="M78.3182 98.5992L76.416 97.5082L77.958 93.5791L79.8602 94.6674L78.3182 98.5992Z" fill="#6BA9C1"/>
<path d="M97.1315 93.5972L94.7998 94.928C94.7465 95.2547 94.6771 95.5894 94.5944 95.9188L96.6193 96.0927L95.0746 100.022L93.055 99.8479C92.8763 100.177 92.6869 100.496 92.4895 100.815L93.6633 102.441L90.9955 105.73L89.8216 104.104C89.5708 104.341 89.3147 104.568 89.0506 104.778V107.414L85.9479 109.203V106.568C85.6954 106.652 85.4379 106.721 85.1768 106.773L84.019 109.709L81.3298 109.48L82.4903 106.523C82.2921 106.433 82.102 106.326 81.9221 106.204L79.9078 108.678L78.3498 106.518L80.364 104.04C80.2777 103.793 80.2073 103.54 80.1533 103.284L77.8242 104.602V101.086L80.1533 99.7688C80.2084 99.4368 80.2778 99.1047 80.3614 98.7727L78.3365 98.5988L79.8785 94.6697L81.9007 94.841C82.0795 94.5142 82.2662 94.1954 82.4663 93.8792L81.2924 92.2506L83.9603 88.9619L85.1342 90.5878C85.3823 90.3506 85.6411 90.1266 85.9025 89.9132V87.278L89.0026 85.5098V88.145C89.255 88.0607 89.5125 87.992 89.7736 87.9394L90.9341 84.9854L93.6233 85.2225L92.4655 88.1819C92.6638 88.2691 92.8532 88.375 93.031 88.4981L95.0453 86.0236L96.606 88.1845L94.5891 90.6616C94.6766 90.9095 94.7471 91.1631 94.7998 91.4205L97.1315 90.0897V93.5972ZM87.4872 101.619C89.5655 100.433 91.2462 97.5579 91.2382 95.1994C91.2302 92.8409 89.5415 91.8896 87.4605 93.0754C85.3796 94.2612 83.7042 97.1336 83.7122 99.4921C83.7202 101.851 85.409 102.802 87.4872 101.619Z" fill="url(#paint32_linear_42_13548)"/>
<path d="M82.4445 93.8787L80.545 92.7877L79.3711 91.1592L81.2706 92.2502L82.4445 93.8787Z" fill="#6BA9C1"/>
<path d="M81.2706 92.2508L79.3711 91.1598L82.0496 87.8711L83.9491 88.9621L81.2706 92.2508Z" fill="#E1F5FF"/>
<path d="M91.4838 113C100.055 113 107.003 106.638 107.003 98.7888C107.003 90.9399 100.055 84.5771 91.4838 84.5771C82.9129 84.5771 75.9648 90.9399 75.9648 98.7888C75.9648 106.638 82.9129 113 91.4838 113Z" fill="url(#paint33_radial_42_13548)" style="mix-blend-mode:color-dodge"/>
<path d="M24.5443 105.635C24.3345 105.635 24.1283 105.581 23.9467 105.477L0.600209 92.1637C0.324665 92.0061 0.123615 91.747 0.0411036 91.4432C-0.0414075 91.1394 0.00134279 90.8157 0.160005 90.5431C0.319583 90.2709 0.581876 90.0723 0.889417 89.9908C1.19696 89.9093 1.52467 89.9515 1.80075 90.1082L25.1472 103.424C25.2836 103.502 25.4031 103.605 25.499 103.729C25.5948 103.852 25.665 103.993 25.7057 104.143C25.7463 104.294 25.7565 104.45 25.7358 104.605C25.715 104.759 25.6637 104.907 25.5847 105.042C25.4799 105.223 25.3284 105.373 25.1456 105.477C24.9628 105.581 24.7553 105.636 24.5443 105.635Z" fill="url(#paint34_linear_42_13548)" style="mix-blend-mode:color-dodge"/>
<path d="M102.86 86.1133C102.65 86.1136 102.444 86.0591 102.262 85.9552L78.9155 72.6396C78.6401 72.4825 78.4391 72.2238 78.3566 71.9205C78.274 71.6171 78.3167 71.2938 78.4753 71.0216C78.554 70.8865 78.659 70.7682 78.7841 70.6732C78.9092 70.5783 79.052 70.5086 79.2044 70.4682C79.3568 70.4279 79.5157 70.4175 79.6721 70.4379C79.8286 70.4582 79.9794 70.5088 80.116 70.5867L103.462 83.905C103.738 84.0627 103.939 84.3218 104.022 84.6255C104.104 84.9293 104.061 85.253 103.903 85.5257C103.796 85.7055 103.644 85.8544 103.461 85.9576C103.278 86.0608 103.07 86.1145 102.86 86.1133Z" fill="url(#paint35_linear_42_13548)" style="mix-blend-mode:color-dodge"/>
<path d="M103.448 106.341C103.238 106.34 103.031 106.286 102.848 106.183L79.5015 92.8647C79.3648 92.7869 79.245 92.6832 79.1489 92.5596C79.0528 92.4359 78.9825 92.2947 78.9418 92.1441C78.9012 91.9936 78.891 91.8365 78.912 91.682C78.933 91.5276 78.9846 91.3787 79.064 91.244C79.1427 91.1093 79.2476 90.9912 79.3725 90.8966C79.4975 90.8019 79.6402 90.7326 79.7923 90.6924C79.9445 90.6523 80.1031 90.6422 80.2592 90.6627C80.4153 90.6831 80.5658 90.7338 80.7021 90.8118L104.049 104.125C104.185 104.203 104.305 104.306 104.401 104.43C104.497 104.553 104.568 104.695 104.609 104.845C104.65 104.996 104.66 105.153 104.639 105.307C104.619 105.462 104.568 105.611 104.489 105.746C104.383 105.926 104.232 106.076 104.049 106.181C103.867 106.285 103.659 106.341 103.448 106.341Z" fill="url(#paint36_linear_42_13548)" style="mix-blend-mode:color-dodge"/>
<path d="M68.7048 23.2768L59.7674 28.3733L50.8301 23.2768L59.7674 18.1777L68.7048 23.2768Z" fill="#02A2D3"/>
<path d="M50.8301 23.2764V64.4118L59.7674 69.5083V28.3728L50.8301 23.2764Z" fill="url(#paint37_linear_42_13548)"/>
<path d="M68.7049 23.2764L59.7676 28.3728V69.5083L68.7049 64.4118V23.2764Z" fill="url(#paint38_linear_42_13548)"/>
<path d="M57.1745 34.909L48.2371 40.0055L39.2998 34.909L48.2371 29.8125L57.1745 34.909Z" fill="#E1F5FF"/>
<path d="M39.2998 34.9082V70.963L48.2371 76.0595V40.0047L39.2998 34.9082Z" fill="url(#paint39_linear_42_13548)"/>
<path d="M57.1746 34.9082L48.2373 40.0047V76.0595L57.1746 70.963V34.9082Z" fill="url(#paint40_linear_42_13548)"/>
<path d="M46.1218 49.0994L37.1844 54.1959L28.2471 49.0994L37.1844 44.0029L46.1218 49.0994Z" fill="#10698C"/>
<path d="M28.2471 49.0986V77.2689L37.1844 82.3654V54.1951L28.2471 49.0986Z" fill="url(#paint41_linear_42_13548)"/>
<path d="M46.1219 49.0986L37.1846 54.1951V82.3654L46.1219 77.2689V49.0986Z" fill="url(#paint42_linear_42_13548)"/>
<path d="M34.7136 65.8823L25.7762 70.9788L16.8389 65.8823L25.7762 60.7832L34.7136 65.8823Z" fill="#33D9FF"/>
<path d="M16.8389 65.8828V83.7679L25.7762 88.8644V70.9793L16.8389 65.8828Z" fill="url(#paint43_linear_42_13548)"/>
<path d="M34.7137 65.8828L25.7764 70.9793V88.8644L34.7137 83.7679V65.8828Z" fill="url(#paint44_linear_42_13548)"/>
<path d="M37.1842 80.6394L46.1215 71.8115V68.5702L37.1842 77.3981V80.6394ZM46.1215 77.269V73.6904L37.5496 82.1573L46.1215 77.269ZM48.2344 76.0594L56.3181 71.4505L57.1718 70.6072V62.7754L48.2344 71.6033V76.0594ZM37.1842 75.1924L46.1215 66.3645V51.1331L37.1842 59.961V75.1924ZM25.7764 71.2396V86.4711L34.7137 77.6432V65.8823L26.3793 70.6256L25.7764 71.2396ZM37.1842 54.2057V57.7026L45.5532 49.4334L37.1842 54.2057ZM25.7764 88.877L33.0596 84.7213L34.7137 83.0901V79.8488L25.7764 88.6768V88.877ZM48.2344 69.7323L57.1718 60.9044V57.6552L48.2344 66.4831V69.7323ZM59.7676 58.343L68.705 49.5151V46.2738L59.7676 55.1017V58.343ZM59.7676 52.896L68.705 44.0681V28.8287L59.7676 37.6567V52.896ZM59.7676 28.3887V35.4009L68.705 26.573V23.2764L59.7676 28.3887ZM48.2344 64.2906L57.1718 55.4627V40.2181L48.2344 49.046V64.2906ZM59.7676 68.059L68.705 59.231V51.3834L59.7676 60.2113V68.059ZM48.2344 46.7903L57.1718 37.9623V34.9108L48.2344 40.0073V46.7903Z" fill="url(#paint45_linear_42_13548)" style="mix-blend-mode:color-dodge"/>
<path d="M65.0952 18.2725L63.2864 17.2316L62.4033 15.9219L64.2121 16.9601L65.0952 18.2725Z" fill="#0F1317"/>
<path d="M63.5527 15.9826L61.7412 14.9443L62.4082 15.9167L64.217 16.955L63.5527 15.9826ZM65.0947 18.2726L63.2859 17.2343L63.9449 18.212L65.7537 19.2503L65.0947 18.2726Z" fill="#004C60"/>
<path d="M63.553 15.9825L61.7441 14.9443L66.2822 12.4619L68.091 13.5002L63.553 15.9825Z" fill="url(#paint46_linear_42_13548)"/>
<path d="M48.5647 35.6938L46.7559 34.6555L62.4029 15.9219L64.2117 16.9601L48.5647 35.6938Z" fill="url(#paint47_linear_42_13548)"/>
<path d="M45.8275 40.2687C45.81 40.2497 45.794 40.2294 45.7795 40.2081L45.7608 40.1765C45.7463 40.1511 45.7338 40.1247 45.7235 40.0974V40.0737C45.7093 40.0354 45.6995 39.9956 45.6941 39.9551C45.6941 39.9551 45.6941 39.934 45.6941 39.9235C45.6941 39.913 45.6941 39.8576 45.6941 39.8234V39.7759C45.6941 39.7417 45.6941 39.7074 45.6941 39.6731C45.6941 39.6389 45.6941 39.6415 45.6941 39.6284C45.6993 39.5768 45.7083 39.5258 45.7208 39.4755C45.7341 39.4202 45.7501 39.3622 45.7688 39.3042L48.0312 32.4237L46.2224 31.3828L43.96 38.2633C43.96 38.2897 43.944 38.316 43.936 38.3424C43.928 38.3687 43.92 38.4056 43.912 38.4372C43.912 38.4794 43.896 38.5216 43.8906 38.5637C43.8895 38.5707 43.8895 38.5778 43.8906 38.5848C43.8893 38.6006 43.8893 38.6165 43.8906 38.6322C43.8906 38.6665 43.8906 38.7008 43.8906 38.735V38.7798C43.8906 38.8167 43.8906 38.851 43.8906 38.8826C43.8906 38.9142 43.8906 38.9037 43.8906 38.9142C43.8982 38.9545 43.9089 38.9941 43.9227 39.0328V39.0565C43.9318 39.0842 43.9444 39.1108 43.96 39.1356C43.9652 39.1467 43.9715 39.1572 43.9787 39.1672C43.9924 39.1883 44.0085 39.2077 44.0267 39.2252C44.0323 39.2343 44.0396 39.2423 44.048 39.2489C44.0719 39.275 44.0998 39.2973 44.1307 39.3148L45.9396 40.353C45.9098 40.3349 45.8821 40.3137 45.8569 40.2898L45.8275 40.2687Z" fill="url(#paint48_linear_42_13548)"/>
<path d="M63.5536 15.9824L64.2125 16.96L48.5655 35.6937L51.2974 27.3875C51.4735 26.8605 51.3641 26.394 51.0306 26.2913C50.9353 26.2684 50.8362 26.2654 50.7397 26.2827C50.6432 26.2999 50.5515 26.337 50.4704 26.3914C50.2393 26.5298 50.0439 26.7192 49.8994 26.9448L23.9491 65.5847C23.5596 66.1671 23.4983 66.8523 23.8157 67.1158C23.9206 67.1876 24.046 67.2246 24.1736 67.2213C24.3012 67.218 24.4245 67.1745 24.5254 67.0973C24.7554 66.9576 24.9505 66.7684 25.0963 66.5439L48.0026 32.4155L45.7402 39.296C45.5748 39.794 45.6602 40.2288 45.9483 40.3685C46.0504 40.4068 46.1604 40.4198 46.2687 40.4065C46.3771 40.3932 46.4805 40.3539 46.57 40.2921C46.7377 40.1916 46.8866 40.0632 47.0101 39.9126L65.0849 18.2723L65.7439 19.25L68.0809 13.5L63.5536 15.9824Z" fill="url(#paint49_linear_42_13548)"/>
<path d="M49.3068 25.2898L49.2614 25.2687L49.2241 25.2529H49.2107H49.16C49.1414 25.2516 49.1227 25.2516 49.104 25.2529H49.0453H48.9786H48.9626H48.9439H48.8986L48.8319 25.274H48.8025C48.7584 25.2909 48.7155 25.3112 48.6745 25.3346C48.6201 25.3646 48.5684 25.3989 48.5198 25.4374L48.4691 25.4822C48.437 25.5085 48.4024 25.5349 48.3703 25.5665C48.3357 25.6008 48.3037 25.635 48.2716 25.6719L48.2476 25.7009L48.2263 25.7246C48.218 25.7365 48.2091 25.748 48.1996 25.7589C48.1777 25.785 48.1572 25.8123 48.1382 25.8406L48.1062 25.888L22.1559 64.5253L22.1346 64.5569C22.1186 64.5833 22.1026 64.607 22.0892 64.6333L22.0465 64.7098C22.0393 64.7197 22.0331 64.7303 22.0279 64.7414L22.0119 64.773C21.9985 64.7967 21.9878 64.8231 21.9745 64.8494L21.9425 64.9311V64.9548V64.9706C21.9425 64.9838 21.9292 64.9996 21.9238 65.0154C21.9185 65.0313 21.9051 65.0761 21.8971 65.1077C21.8902 65.1292 21.8849 65.1513 21.8811 65.1736C21.88 65.1797 21.88 65.1859 21.8811 65.192C21.8811 65.192 21.8811 65.2052 21.8811 65.2104C21.8811 65.2552 21.8651 65.2974 21.8598 65.3396C21.8545 65.3817 21.8598 65.358 21.8598 65.3686C21.8571 65.4089 21.8571 65.4494 21.8598 65.4898C21.8598 65.5188 21.8598 65.5478 21.8598 65.5767C21.8624 65.6148 21.8677 65.6527 21.8758 65.6901C21.8758 65.7138 21.8758 65.7401 21.8891 65.7638C21.9001 65.8002 21.9144 65.8355 21.9318 65.8692C21.9382 65.8875 21.9462 65.9051 21.9558 65.922C21.983 65.9688 22.0182 66.0107 22.0599 66.0458C22.0789 66.0638 22.1004 66.0789 22.1239 66.0906L23.9327 67.1289C23.9102 67.1157 23.8887 67.1007 23.8687 67.0841C23.8278 67.0483 23.7927 67.0065 23.7646 66.9602C23.7556 66.9441 23.7475 66.9273 23.7406 66.9102C23.7232 66.8754 23.7089 66.8393 23.6979 66.8021C23.6979 66.7784 23.698 66.7547 23.6846 66.7283C23.6713 66.702 23.6713 66.6545 23.6686 66.615C23.6659 66.5755 23.6686 66.557 23.6686 66.528C23.6686 66.4991 23.6686 66.449 23.6686 66.4068C23.6686 66.3647 23.6846 66.2909 23.6979 66.2303C23.6979 66.2303 23.6979 66.2171 23.6979 66.2118C23.7135 66.1428 23.734 66.075 23.7593 66.0089V65.9931C23.7859 65.9201 23.8171 65.8488 23.8527 65.7796C23.8908 65.7059 23.9336 65.6346 23.9807 65.5662L49.9311 26.9263C49.9684 26.8683 50.0111 26.8156 50.0511 26.7629L50.0724 26.7392C50.1123 26.691 50.1551 26.6452 50.2005 26.6021C50.2325 26.5705 50.2645 26.5442 50.2992 26.5152L50.3472 26.473C50.3969 26.4369 50.4486 26.4035 50.502 26.3729C50.546 26.3459 50.5924 26.3229 50.6407 26.3044H50.67L50.7821 26.2727H50.8008C50.8425 26.2689 50.8845 26.2689 50.9262 26.2727C50.9688 26.2753 51.011 26.2832 51.0515 26.2965C51.0826 26.3044 51.1122 26.3168 51.1396 26.3333L49.3068 25.2898Z" fill="url(#paint50_linear_42_13548)"/>
</g>
<defs>
<radialGradient id="paint0_radial_42_13548" cx="0" cy="0" r="1" gradientUnits="userSpaceOnUse" gradientTransform="translate(77.7882 53.4377) scale(15.9844 17.0271)">
<stop stop-color="#E1F5FF"/>
<stop offset="0.85" stop-opacity="0"/>
</radialGradient>
<radialGradient id="paint1_radial_42_13548" cx="0" cy="0" r="1" gradientTransform="matrix(34.2156 -19.2811 -0.0288713 40.9175 38.6397 43.8631)" gradientUnits="userSpaceOnUse">
<stop stop-color="#D3FFE6"/>
<stop offset="0.17" stop-color="#ADD1BC" stop-opacity="0.82"/>
<stop offset="0.75" stop-color="#323C36" stop-opacity="0.23"/>
<stop offset="1" stop-opacity="0"/>
</radialGradient>
<linearGradient id="paint2_linear_42_13548" x1="89.4476" y1="75.4565" x2="89.4476" y2="50.7674" gradientUnits="userSpaceOnUse">
<stop offset="0.15" stop-opacity="0"/>
<stop offset="1" stop-color="#64D5F7"/>
</linearGradient>
<linearGradient id="paint3_linear_42_13548" x1="95.3414" y1="32.6817" x2="81.0648" y2="52.3605" gradientUnits="userSpaceOnUse">
<stop stop-color="white"/>
<stop offset="0.92" stop-color="#252279" stop-opacity="0"/>
</linearGradient>
<linearGradient id="paint4_linear_42_13548" x1="91.6274" y1="38.4634" x2="87.2812" y2="54.8232" gradientUnits="userSpaceOnUse">
<stop offset="0.06" stop-color="#5FE1FF"/>
<stop offset="0.92" stop-color="#252279" stop-opacity="0"/>
</linearGradient>
<linearGradient id="paint5_linear_42_13548" x1="12.7086" y1="35.0263" x2="21.2503" y2="66.639" gradientUnits="userSpaceOnUse">
<stop stop-color="white"/>
<stop offset="0.92" stop-color="#252279" stop-opacity="0"/>
</linearGradient>
<linearGradient id="paint6_linear_42_13548" x1="6.01264" y1="67.0547" x2="6.01264" y2="39.5169" gradientUnits="userSpaceOnUse">
<stop stop-color="white"/>
<stop offset="1" stop-color="white" stop-opacity="0"/>
</linearGradient>
<linearGradient id="paint7_linear_42_13548" x1="5.73785" y1="38.8715" x2="24.7576" y2="27.8679" gradientUnits="userSpaceOnUse">
<stop stop-color="white"/>
<stop offset="1" stop-color="white" stop-opacity="0"/>
</linearGradient>
<linearGradient id="paint8_linear_42_13548" x1="57.8846" y1="63.1552" x2="28.4746" y2="153.805" gradientUnits="userSpaceOnUse">
<stop stop-color="white"/>
<stop offset="1" stop-color="#3074E1"/>
</linearGradient>
<linearGradient id="paint9_linear_42_13548" x1="-14.1477" y1="69.4852" x2="52.1363" y2="110.849" gradientUnits="userSpaceOnUse">
<stop stop-color="white"/>
<stop offset="1" stop-color="#2B329A"/>
</linearGradient>
<linearGradient id="paint10_linear_42_13548" x1="105.679" y1="75.6617" x2="42.1446" y2="113.087" gradientUnits="userSpaceOnUse">
<stop stop-color="white"/>
<stop offset="1" stop-color="#3074E1"/>
</linearGradient>
<linearGradient id="paint11_linear_42_13548" x1="64.4203" y1="69.4582" x2="67.2562" y2="90.2462" gradientUnits="userSpaceOnUse">
<stop stop-color="#E1F5FF"/>
<stop offset="1" stop-color="#9FCCE2"/>
</linearGradient>
<linearGradient id="paint12_linear_42_13548" x1="78.8962" y1="82.4849" x2="46.3483" y2="82.1472" gradientUnits="userSpaceOnUse">
<stop stop-color="#83B7CC"/>
<stop offset="1" stop-color="#3C8196"/>
</linearGradient>
<linearGradient id="paint13_linear_42_13548" x1="67.4276" y1="74.4891" x2="61.3047" y2="82.5362" gradientUnits="userSpaceOnUse">
<stop stop-color="#9FCCE2"/>
<stop offset="1" stop-color="#6BA9C1"/>
</linearGradient>
<linearGradient id="paint14_linear_42_13548" x1="68.5748" y1="75.3614" x2="62.4519" y2="83.4111" gradientUnits="userSpaceOnUse">
<stop stop-color="#9FCCE2"/>
<stop offset="1" stop-color="#6BA9C1"/>
</linearGradient>
<linearGradient id="paint15_linear_42_13548" x1="69.7217" y1="76.2362" x2="63.5988" y2="84.2833" gradientUnits="userSpaceOnUse">
<stop stop-color="#9FCCE2"/>
<stop offset="1" stop-color="#6BA9C1"/>
</linearGradient>
<linearGradient id="paint16_linear_42_13548" x1="69.7348" y1="76.2439" x2="63.6118" y2="84.2936" gradientUnits="userSpaceOnUse">
<stop stop-color="#9FCCE2"/>
<stop offset="1" stop-color="#6BA9C1"/>
</linearGradient>
<linearGradient id="paint17_linear_42_13548" x1="64.1854" y1="72.0231" x2="58.0625" y2="80.0728" gradientUnits="userSpaceOnUse">
<stop stop-color="#9FCCE2"/>
<stop offset="1" stop-color="#6BA9C1"/>
</linearGradient>
<linearGradient id="paint18_linear_42_13548" x1="72.8967" y1="78.6504" x2="66.7738" y2="86.6974" gradientUnits="userSpaceOnUse">
<stop stop-color="#9FCCE2"/>
<stop offset="1" stop-color="#6BA9C1"/>
</linearGradient>
<linearGradient id="paint19_linear_42_13548" x1="79.7739" y1="83.6329" x2="51.1936" y2="82.8659" gradientUnits="userSpaceOnUse">
<stop stop-color="#83B7CC"/>
<stop offset="1" stop-color="#3C8196"/>
</linearGradient>
<linearGradient id="paint20_linear_42_13548" x1="79.4217" y1="84.5587" x2="51.1059" y2="83.5243" gradientUnits="userSpaceOnUse">
<stop stop-color="#83B7CC"/>
<stop offset="1" stop-color="#3C8196"/>
</linearGradient>
<linearGradient id="paint21_linear_42_13548" x1="79.3204" y1="85.465" x2="51.4424" y2="84.2821" gradientUnits="userSpaceOnUse">
<stop stop-color="#83B7CC"/>
<stop offset="1" stop-color="#3C8196"/>
</linearGradient>
<linearGradient id="paint22_linear_42_13548" x1="50.0968" y1="82.0524" x2="34.9486" y2="93.5523" gradientUnits="userSpaceOnUse">
<stop stop-color="#0082BA"/>
<stop offset="1" stop-color="#006284"/>
</linearGradient>
<linearGradient id="paint23_linear_42_13548" x1="61.1765" y1="92.5535" x2="35.7245" y2="95.8393" gradientUnits="userSpaceOnUse">
<stop stop-color="#83B7CC"/>
<stop offset="1" stop-color="#3C8196"/>
</linearGradient>
<linearGradient id="paint24_linear_42_13548" x1="84.5869" y1="72.2702" x2="71.2561" y2="71.7786" gradientUnits="userSpaceOnUse">
<stop stop-color="#007E93"/>
<stop offset="1" stop-color="#005E68"/>
</linearGradient>
<linearGradient id="paint25_linear_42_13548" x1="77.7225" y1="72.5607" x2="77.7225" y2="52.5305" gradientUnits="userSpaceOnUse">
<stop stop-color="#252279"/>
<stop offset="1" stop-color="#53F0E7"/>
</linearGradient>
<linearGradient id="paint26_linear_42_13548" x1="77.6696" y1="60.7253" x2="77.7997" y2="56.5088" gradientUnits="userSpaceOnUse">
<stop stop-color="#FFBB00"/>
<stop offset="1" stop-color="#EF7851"/>
</linearGradient>
<linearGradient id="paint27_linear_42_13548" x1="77.7201" y1="62.4355" x2="77.7201" y2="72.7128" gradientUnits="userSpaceOnUse">
<stop stop-color="#FFBB00"/>
<stop offset="1" stop-color="#EF7851"/>
</linearGradient>
<linearGradient id="paint28_linear_42_13548" x1="84.691" y1="53.7448" x2="71.1658" y2="54.4335" gradientUnits="userSpaceOnUse">
<stop stop-color="#007E93"/>
<stop offset="1" stop-color="#005E68"/>
</linearGradient>
<linearGradient id="paint29_linear_42_13548" x1="70.5515" y1="97.8631" x2="73.9509" y2="90.7153" gradientUnits="userSpaceOnUse">
<stop stop-color="#007E93"/>
<stop offset="1" stop-color="#005E68"/>
</linearGradient>
<linearGradient id="paint30_linear_42_13548" x1="75.956" y1="86.7166" x2="63.5766" y2="111.912" gradientUnits="userSpaceOnUse">
<stop stop-color="#00A1C6"/>
<stop offset="1" stop-color="#00859B"/>
</linearGradient>
<linearGradient id="paint31_linear_42_13548" x1="85.299" y1="102.019" x2="90.516" y2="92.3783" gradientUnits="userSpaceOnUse">
<stop stop-color="#83B7CC"/>
<stop offset="1" stop-color="#3C8196"/>
</linearGradient>
<linearGradient id="paint32_linear_42_13548" x1="90.4085" y1="92.0556" x2="60.9959" y2="146.246" gradientUnits="userSpaceOnUse">
<stop stop-color="#9FCCE2"/>
<stop offset="1" stop-color="#6BA9C1"/>
</linearGradient>
<radialGradient id="paint33_radial_42_13548" cx="0" cy="0" r="1" gradientUnits="userSpaceOnUse" gradientTransform="translate(91.2956 99.2885) scale(14.5898 15.5415)">
<stop stop-color="#B631DE"/>
<stop offset="0.85" stop-opacity="0"/>
</radialGradient>
<linearGradient id="paint34_linear_42_13548" x1="-6.01783e-05" y1="97.7925" x2="25.7475" y2="97.7925" gradientUnits="userSpaceOnUse">
<stop offset="0.15" stop-opacity="0"/>
<stop offset="1" stop-color="#64D5F7"/>
</linearGradient>
<linearGradient id="paint35_linear_42_13548" x1="78.3152" y1="78.271" x2="104.063" y2="78.271" gradientUnits="userSpaceOnUse">
<stop offset="0.15" stop-opacity="0"/>
<stop offset="1" stop-color="#64D5F7"/>
</linearGradient>
<linearGradient id="paint36_linear_42_13548" x1="78.9013" y1="98.4987" x2="104.649" y2="98.4987" gradientUnits="userSpaceOnUse">
<stop offset="0.15" stop-opacity="0"/>
<stop offset="1" stop-color="#64D5F7"/>
</linearGradient>
<linearGradient id="paint37_linear_42_13548" x1="55.2987" y1="25.764" x2="55.2987" y2="67.2974" gradientUnits="userSpaceOnUse">
<stop stop-color="#005F7C"/>
<stop offset="1" stop-color="#003E4C"/>
</linearGradient>
<linearGradient id="paint38_linear_42_13548" x1="64.2362" y1="26.0249" x2="64.2362" y2="66.1695" gradientUnits="userSpaceOnUse">
<stop stop-color="#007AA0"/>
<stop offset="1" stop-color="#00586D"/>
</linearGradient>
<linearGradient id="paint39_linear_42_13548" x1="43.7685" y1="37.1587" x2="43.7685" y2="73.6746" gradientUnits="userSpaceOnUse">
<stop stop-color="#83B7CC"/>
<stop offset="1" stop-color="#3C8196"/>
</linearGradient>
<linearGradient id="paint40_linear_42_13548" x1="52.706" y1="37.936" x2="52.706" y2="73.2925" gradientUnits="userSpaceOnUse">
<stop stop-color="#9FCCE2"/>
<stop offset="1" stop-color="#6BA9C1"/>
</linearGradient>
<linearGradient id="paint41_linear_42_13548" x1="32.7157" y1="50.8036" x2="32.7157" y2="80.7764" gradientUnits="userSpaceOnUse">
<stop stop-color="#003A51"/>
<stop offset="1" stop-color="#002733"/>
</linearGradient>
<linearGradient id="paint42_linear_42_13548" x1="41.6532" y1="53.2333" x2="41.6532" y2="79.9621" gradientUnits="userSpaceOnUse">
<stop stop-color="#014D6B"/>
<stop offset="1" stop-color="#004054"/>
</linearGradient>
<linearGradient id="paint43_linear_42_13548" x1="21.3075" y1="68.6208" x2="21.3075" y2="86.4558" gradientUnits="userSpaceOnUse">
<stop stop-color="#007E93"/>
<stop offset="1" stop-color="#005E68"/>
</linearGradient>
<linearGradient id="paint44_linear_42_13548" x1="30.245" y1="68.3494" x2="30.245" y2="85.6442" gradientUnits="userSpaceOnUse">
<stop stop-color="#00A1C6"/>
<stop offset="1" stop-color="#00859B"/>
</linearGradient>
<linearGradient id="paint45_linear_42_13548" x1="10.7003" y1="94.0183" x2="90.237" y2="18.0687" gradientUnits="userSpaceOnUse">
<stop stop-color="#D3FFE6"/>
<stop offset="0.98" stop-opacity="0"/>
</linearGradient>
<linearGradient id="paint46_linear_42_13548" x1="67.0372" y1="13.1181" x2="62.8262" y2="15.3692" gradientUnits="userSpaceOnUse">
<stop stop-color="#5FE1FF"/>
<stop offset="1" stop-color="#1DCFFF"/>
</linearGradient>
<linearGradient id="paint47_linear_42_13548" x1="63.3526" y1="16.441" x2="50.3653" y2="32.2882" gradientUnits="userSpaceOnUse">
<stop stop-color="#5FE1FF"/>
<stop offset="1" stop-color="#1DCFFF"/>
</linearGradient>
<linearGradient id="paint48_linear_42_13548" x1="44.5656" y1="40.6403" x2="46.8418" y2="32.2355" gradientUnits="userSpaceOnUse">
<stop stop-color="#00698E"/>
<stop offset="1" stop-color="#004C60"/>
</linearGradient>
<linearGradient id="paint49_linear_42_13548" x1="66.787" y1="12.1771" x2="23.8586" y2="65.7517" gradientUnits="userSpaceOnUse">
<stop stop-color="#0082BA"/>
<stop offset="1" stop-color="#006284"/>
</linearGradient>
<linearGradient id="paint50_linear_42_13548" x1="50.5126" y1="25.1897" x2="23.44" y2="65.9462" gradientUnits="userSpaceOnUse">
<stop stop-color="#5FE1FF"/>
<stop offset="1" stop-color="#1DCFFF"/>
</linearGradient>
<clipPath id="clip0_42_13548">
<rect width="107" height="113" fill="white"/>
</clipPath>
</defs>
</svg>
