<svg width="31" height="31" viewBox="0 0 31 31" fill="none" xmlns="http://www.w3.org/2000/svg">
<path d="M24.2912 10.8317L16.534 0.488707C16.0465 -0.162902 14.9528 -0.162902 14.4654 0.488707L6.70813 10.8317C6.41462 11.2235 6.36808 11.7471 6.58662 12.1854C6.80643 12.6237 7.25247 12.9003 7.74245 12.9003H11.6211V18.0718C11.6211 18.7855 12.199 19.3647 12.9139 19.3647H18.0854C18.8004 19.3647 19.3783 18.7855 19.3783 18.0718V12.9003H23.2569C23.7469 12.9003 24.1943 12.6237 24.414 12.1854C24.6325 11.7471 24.586 11.2235 24.2912 10.8317Z" fill="#0ABF01"/>
<path d="M18.0854 20.6572H12.9139C12.199 20.6572 11.6211 21.2351 11.6211 21.9501C11.6211 22.665 12.199 23.2429 12.9139 23.2429H18.0854C18.8004 23.2429 19.3783 22.665 19.3783 21.9501C19.3783 21.2351 18.8004 20.6572 18.0854 20.6572Z" fill="#0ABF01"/>
<path d="M18.0854 24.5356H12.9139C12.199 24.5356 11.6211 25.1136 11.6211 25.8285C11.6211 26.5434 12.199 27.1214 12.9139 27.1214H18.0854C18.8004 27.1214 19.3783 26.5434 19.3783 25.8285C19.3783 25.1136 18.8004 24.5356 18.0854 24.5356Z" fill="#0ABF01"/>
<path d="M18.0854 28.4141H12.9139C12.199 28.4141 11.6211 28.992 11.6211 29.7069C11.6211 30.4219 12.199 30.9998 12.9139 30.9998H18.0854C18.8004 30.9998 19.3783 30.4219 19.3783 29.7069C19.3783 28.992 18.8004 28.4141 18.0854 28.4141Z" fill="#0ABF01"/>
</svg>
