<svg width="22" height="22" viewBox="0 0 22 22" fill="none" xmlns="http://www.w3.org/2000/svg">
<g clip-path="url(#clip0_42_15267)">
<path fill-rule="evenodd" clip-rule="evenodd" d="M9.1041 0.633789C13.8549 0.633789 17.7062 4.48507 17.7062 9.23589C17.7062 9.5165 17.6923 9.79385 17.6661 10.0676C17.3611 9.64035 16.8614 9.36091 16.2984 9.36091H15.8022C15.8029 9.31931 15.8038 9.2777 15.8038 9.23589C15.8038 5.53585 12.8042 2.53627 9.10414 2.53627C5.40405 2.53627 2.40447 5.53589 2.40447 9.23589C2.40447 12.3935 4.58923 15.0405 7.52944 15.7489C7.5585 15.8135 7.59074 15.8772 7.62615 15.9399C7.70715 16.083 7.80277 16.2163 7.90986 16.34V17.7551C3.7244 17.1737 0.501953 13.5814 0.501953 9.23589C0.501953 4.48511 4.35328 0.633789 9.1041 0.633789ZM17.3088 11.0404C17.3088 10.4847 16.8541 10.0299 16.2984 10.0299H15.7571H13.2816C12.7258 10.0299 12.271 10.4847 12.271 11.0404V11.7165H13.1656V11.0404C13.1656 10.9784 13.2196 10.9245 13.2816 10.9245H15.5891H16.2984C16.3604 10.9245 16.4143 10.9784 16.4143 11.0404V11.7165H17.3088V11.0404ZM13.9353 17.213C13.9353 17.6851 14.3179 18.0676 14.79 18.0676C15.262 18.0676 15.6446 17.6851 15.6446 17.213C15.6446 16.741 15.262 16.3584 14.79 16.3584C14.3178 16.3584 13.9353 16.741 13.9353 17.213ZM18.4934 12.3855V13.6244C18.4934 13.8836 18.3876 14.1189 18.2172 14.2894C18.0468 14.4597 17.8114 14.5655 17.5523 14.5655H12.0275C11.7684 14.5655 11.533 14.4597 11.3626 14.2894C11.1922 14.1189 11.0864 13.8836 11.0864 13.6244V12.3855H8.82215C8.78125 12.3855 8.74396 12.4024 8.71682 12.4295C8.68968 12.4567 8.67283 12.494 8.67283 12.5349V14.8369C8.67283 15.005 8.71536 15.1517 8.78857 15.2811C9.18283 15.9778 10.3317 16.2634 10.9881 16.3976C11.6838 16.54 12.5002 16.636 13.36 16.686C13.5804 16.0885 14.1501 15.6894 14.79 15.6894C15.4295 15.6894 15.9989 16.0881 16.2195 16.6852C17.0808 16.6346 17.898 16.5382 18.5931 16.3961C19.2499 16.2618 20.397 15.9779 20.7913 15.2811C20.8645 15.1518 20.907 15.005 20.907 14.8369V12.5349C20.907 12.494 20.8902 12.4567 20.863 12.4295C20.8359 12.4024 20.7986 12.3855 20.7577 12.3855H18.4934ZM11.7554 12.3855V13.6244C11.7554 13.6989 11.7861 13.7669 11.8356 13.8163C11.885 13.8658 11.953 13.8965 12.0275 13.8965H17.5523C17.6268 13.8965 17.6947 13.8658 17.7442 13.8163C17.7937 13.7669 17.8244 13.6989 17.8244 13.6244V12.3855H11.7554ZM13.2722 17.3489C12.3998 17.2963 11.5688 17.197 10.8548 17.051C10.2131 16.9197 9.66039 16.7488 9.24785 16.5376V20.1655C9.24785 20.3328 9.31655 20.4852 9.42723 20.5959C9.53791 20.7066 9.69028 20.7753 9.85762 20.7753H19.722C19.8893 20.7753 20.0417 20.7066 20.1524 20.5959C20.2631 20.4852 20.3318 20.3328 20.3318 20.1655V16.5375C19.9205 16.7477 19.3682 16.9182 18.7263 17.0494C18.0121 17.1954 17.1805 17.2951 16.3075 17.3482C16.2385 18.1332 15.5788 18.7366 14.7898 18.7366C14.0012 18.7366 13.3416 18.1336 13.2722 17.3489ZM3.76989 9.5704H4.34809C4.53283 9.5704 4.6826 9.42062 4.6826 9.23589C4.6826 9.05116 4.53283 8.90138 4.34809 8.90138H3.76989C3.58516 8.90138 3.43539 9.05116 3.43539 9.23589C3.43539 9.42062 3.58516 9.5704 3.76989 9.5704ZM14.4383 8.90138H13.86C13.6753 8.90138 13.5255 9.05116 13.5255 9.23589C13.5255 9.42062 13.6753 9.5704 13.86 9.5704H14.4383C14.623 9.5704 14.7728 9.42062 14.7728 9.23589C14.7728 9.05116 14.623 8.90138 14.4383 8.90138ZM5.09576 5.70059L5.50462 6.10945C5.63524 6.24007 5.84703 6.24007 5.97761 6.10945C6.10824 5.97882 6.10824 5.76704 5.97761 5.63645L5.56876 5.2276C5.43813 5.09697 5.22635 5.09697 5.09572 5.2276C4.96514 5.35818 4.96514 5.56997 5.09576 5.70059ZM5.56876 13.2442L5.97761 12.8354C6.10824 12.7047 6.10824 12.493 5.97761 12.3624C5.84698 12.2318 5.6352 12.2318 5.50462 12.3624L5.09576 12.7712C4.96514 12.9019 4.96514 13.1136 5.09576 13.2442C5.22635 13.3749 5.43813 13.3749 5.56876 13.2442ZM12.6394 5.22756L12.2305 5.63641C12.0999 5.76704 12.0999 5.97882 12.2305 6.1094C12.3612 6.24003 12.573 6.24003 12.7035 6.1094L13.1124 5.70055C13.243 5.56993 13.243 5.35814 13.1124 5.22756C12.9818 5.09693 12.77 5.09693 12.6394 5.22756ZM8.76959 3.90173V4.47993C8.76959 4.66466 8.91936 4.81444 9.1041 4.81444C9.28883 4.81444 9.43861 4.66466 9.43861 4.47993V3.90173C9.43861 3.717 9.28883 3.56722 9.1041 3.56722C8.91936 3.56722 8.76959 3.717 8.76959 3.90173ZM8.76959 6.70111V9.23589C8.76959 9.37099 8.8497 9.4874 8.96502 9.54017L10.6305 10.5018C10.79 10.5934 10.9936 10.5384 11.0853 10.3789C11.1769 10.2194 11.1219 10.0158 10.9624 9.92418L9.43861 9.04443V6.70111C9.43861 6.51638 9.28883 6.3666 9.1041 6.3666C8.91936 6.3666 8.76959 6.51638 8.76959 6.70111Z" fill="#0094CA"/>
</g>
<defs>
<clipPath id="clip0_42_15267">
<rect width="21.4086" height="21.4086" fill="white"/>
</clipPath>
</defs>
</svg>
