<svg width="24" height="24" viewBox="0 0 24 24" fill="none" xmlns="http://www.w3.org/2000/svg">
<g clip-path="url(#clip0_42_15284)">
<path d="M14.1325 2.89866V2.14635C11.7487 1.53791 9.133 1.78578 6.88477 2.86098V3.25163L7.05472 3.5814C9.22867 2.49497 11.8103 2.25761 14.1325 2.89866Z" fill="#0CC503"/>
<path d="M22.1055 12.4352C22.1055 11.2766 21.9211 10.1438 21.5572 9.05957H20.7872C21.1796 10.1395 21.3808 11.2734 21.3808 12.4352C21.3808 15.7332 20.2226 18.936 18.1193 21.4734V19.2063H17.3945V22.8302H20.656V22.1054H18.5382L18.5824 22.0529C20.8542 19.3683 22.1055 15.9525 22.1055 12.4352Z" fill="#0CC503"/>
<path d="M14.8563 13.4078H16.2874C16.2022 11.7828 15.5539 10.3083 14.5309 9.17221L13.5202 10.1829L13.0078 9.67049L14.0185 8.6598C12.8824 7.63642 11.4079 6.98848 9.78292 6.90332V8.33438H9.05815V6.90332C7.43322 6.98848 5.95868 7.63679 4.8226 8.6598L5.83329 9.67049L5.32088 10.1829L4.31019 9.17221C3.28681 10.3083 2.63887 11.7828 2.55371 13.4078H3.98477V14.1325H2.55371C2.63887 15.7575 3.28718 17.232 4.31019 18.3681L5.32088 17.3574L5.83329 17.8698L4.8226 18.8805C5.95868 19.9039 7.43322 20.5518 9.05815 20.637V19.2059H9.78292V20.637C11.4079 20.5518 12.8824 19.9035 14.0185 18.8805L13.0078 17.8698L13.5202 17.3574L14.5309 18.3681C15.5543 17.232 16.2022 15.7575 16.2874 14.1325H14.8563V13.4078ZM4.70954 16.3068H3.98477V15.5821H4.70954V16.3068ZM4.70954 11.9582H3.98477V11.2335H4.70954V11.9582ZM11.2325 8.33438H11.9572V9.05915H11.2325V8.33438ZM6.88384 8.33438H7.60861V9.05915H6.88384V8.33438ZM7.60861 19.2059H6.88384V18.4811H7.60861V19.2059ZM11.9572 19.2059H11.2325V18.4811H11.9572V19.2059ZM10.7436 12.5409C11.0444 12.8645 11.2325 13.2947 11.2325 13.7701C11.2325 14.7692 10.4196 15.5821 9.42053 15.5821C9.41003 15.5821 9.40024 15.5792 9.38973 15.5788L9.04945 17.1099L8.34172 16.9526L8.68199 15.4208C8.05108 15.1374 7.60861 14.5058 7.60861 13.7701C7.60861 13.4016 7.72059 13.0591 7.91048 12.7725L5.90287 10.7649L6.41528 10.2525L8.42289 12.2601C8.70954 12.0702 9.05199 11.9582 9.42053 11.9582C9.6829 11.9582 9.93041 12.0169 10.1558 12.1177L12.7498 8.48622L13.3394 8.90731L10.7436 12.5409ZM14.1315 11.2335H14.8563V11.9582H14.1315V11.2335ZM14.8563 16.3068H14.1315V15.5821H14.8563V16.3068Z" fill="#0CC503"/>
<path d="M9.42211 14.8574C10.0225 14.8574 10.5093 14.3707 10.5093 13.7703C10.5093 13.1698 10.0225 12.6831 9.42211 12.6831C8.8217 12.6831 8.33496 13.1698 8.33496 13.7703C8.33496 14.3707 8.8217 14.8574 9.42211 14.8574Z" fill="#0CC503"/>
<path d="M9.42176 5.43555C4.82563 5.43555 1.08691 9.17427 1.08691 13.7704C1.08691 18.3665 4.82563 22.1052 9.42176 22.1052C14.0179 22.1052 17.7566 18.3665 17.7566 13.7704C17.7566 9.17427 14.0179 5.43555 9.42176 5.43555ZM9.42176 21.3805C5.22571 21.3805 1.81168 17.9664 1.81168 13.7704C1.81168 9.57434 5.22571 6.16032 9.42176 6.16032C13.6178 6.16032 17.0318 9.57434 17.0318 13.7704C17.0318 17.9664 13.6178 21.3805 9.42176 21.3805Z" fill="#0CC503"/>
<path d="M19.9308 1.08691V2.53645C19.9308 2.93616 19.6057 3.26122 19.206 3.26122H17.7565C17.3568 3.26122 17.0317 2.93616 17.0317 2.53645V1.08691H14.8574V6.52775C15.5412 7.04234 16.15 7.65115 16.6643 8.3346H22.1051V1.08691H19.9308ZM18.4813 7.60984H17.7565V6.88507H18.4813V7.60984ZM19.9308 7.60984H19.206V6.88507H19.9308V7.60984ZM21.3803 7.60984H20.6556V6.88507H21.3803V7.60984Z" fill="#0CC503"/>
<path d="M17.7559 1.08691H19.2054V2.53645H17.7559V1.08691Z" fill="#0CC503"/>
<path d="M1.44946 7.60985C2.04988 7.60985 2.53661 7.12312 2.53661 6.5227C2.53661 5.92228 2.04988 5.43555 1.44946 5.43555C0.84904 5.43555 0.362305 5.92228 0.362305 6.5227C0.362305 7.12312 0.84904 7.60985 1.44946 7.60985Z" fill="#0CC503"/>
<path d="M3.62329 5.43554C4.2237 5.43554 4.71044 4.9488 4.71044 4.34838C4.71044 3.74797 4.2237 3.26123 3.62329 3.26123C3.02287 3.26123 2.53613 3.74797 2.53613 4.34838C2.53613 4.9488 3.02287 5.43554 3.62329 5.43554Z" fill="#0CC503"/>
<path d="M5.43555 3.26123H6.16032V3.986H5.43555V3.26123Z" fill="#0CC503"/>
</g>
<defs>
<clipPath id="clip0_42_15284">
<rect width="23.1926" height="23.1926" fill="white"/>
</clipPath>
</defs>
</svg>
