<svg width="29" height="29" viewBox="0 0 29 29" fill="none" xmlns="http://www.w3.org/2000/svg">
<path d="M20.9629 4.90625H22.7469V5.79827H20.9629V4.90625Z" fill="#FF3737"/>
<path d="M20.2783 3.83203L21.5398 2.57052L22.1706 3.20128L20.9091 4.46279L20.2783 3.83203Z" fill="#FF3737"/>
<path d="M20.2744 6.81885L20.9052 6.18809L22.1667 7.4496L21.5359 8.08036L20.2744 6.81885Z" fill="#FF3737"/>
<path d="M14.2719 22.7465C15.6833 22.7465 17.063 22.328 18.2366 21.5438C19.4101 20.7597 20.3248 19.6452 20.8649 18.3412C21.405 17.0372 21.5463 15.6024 21.271 14.2181C20.9956 12.8338 20.316 11.5623 19.318 10.5643C18.32 9.56625 17.0484 8.8866 15.6641 8.61124C14.2798 8.33589 12.845 8.47721 11.541 9.01733C10.2371 9.55746 9.12254 10.4721 8.33841 11.6457C7.55427 12.8192 7.13574 14.1989 7.13574 15.6103C7.13574 17.5029 7.88759 19.3181 9.22588 20.6564C10.5642 21.9947 12.3793 22.7465 14.2719 22.7465ZM13.8259 9.38845V10.2582H14.7179V9.38845C16.2917 9.50114 17.7644 10.2054 18.84 11.3597C19.9157 12.5139 20.5145 14.0326 20.5161 15.6103V16.0162H19.6241V16.9082H20.3778C20.0995 18.2354 19.3966 19.436 18.3755 20.3284C17.3544 21.2208 16.0705 21.7564 14.7179 21.8545V20.9625H13.8259V21.8545C12.3264 21.7453 10.9167 21.0987 9.85565 20.0336C8.7946 18.9684 8.15348 17.5562 8.05007 16.0563H8.91979V15.1643H8.05007C8.15862 13.6684 8.802 12.2615 9.86256 11.2009C10.9231 10.1404 12.33 9.497 13.8259 9.38845Z" fill="#FF3737"/>
<path d="M13.4736 14.5446L11.8412 13.4563L11.3506 14.1967L12.9785 15.285C12.9144 15.5366 12.9249 15.8014 13.0086 16.0472C13.0924 16.2929 13.2459 16.509 13.4503 16.669C13.6548 16.8291 13.9013 16.9262 14.16 16.9485C14.4187 16.9709 14.6783 16.9174 14.9071 16.7948C15.136 16.6722 15.3242 16.4856 15.4489 16.2578C15.5735 16.0301 15.6292 15.771 15.6092 15.5121C15.5891 15.2532 15.4942 15.0058 15.3359 14.8C15.1777 14.5941 14.963 14.4388 14.718 14.3528V12.0425H13.826V14.3528C13.7 14.3997 13.5813 14.4643 13.4736 14.5446Z" fill="#FF3737"/>
<path d="M11.1504 10.7041H12.0424V11.5961H11.1504V10.7041Z" fill="#FF3737"/>
<path d="M16.502 10.7041H17.394V11.5961H16.502V10.7041Z" fill="#FF3737"/>
<path d="M18.2861 12.4883H19.1782V13.3803H18.2861V12.4883Z" fill="#FF3737"/>
<path d="M18.2861 17.8403H19.1782V18.7324H18.2861V17.8403Z" fill="#FF3737"/>
<path d="M16.502 19.6245H17.394V20.5165H16.502V19.6245Z" fill="#FF3737"/>
<path d="M11.1504 19.6245H12.0424V20.5165H11.1504V19.6245Z" fill="#FF3737"/>
<path d="M9.36523 12.4883H10.2573V13.3803H9.36523V12.4883Z" fill="#FF3737"/>
<path d="M9.36523 17.8403H10.2573V18.7324H9.36523V17.8403Z" fill="#FF3737"/>
<path d="M23.5939 14.7185C23.4066 12.7863 22.6236 10.96 21.3532 9.49219C20.0828 8.0244 18.3877 6.98761 16.5023 6.52522V4.90619C16.5023 4.78791 16.4553 4.67446 16.3717 4.59082C16.288 4.50717 16.1746 4.46018 16.0563 4.46018H14.7182V3.12215C14.7182 2.76728 14.8592 2.42694 15.1101 2.17601C15.3611 1.92508 15.7014 1.78411 16.0563 1.78411C16.4111 1.78411 16.7515 1.92508 17.0024 2.17601C17.2533 2.42694 17.3943 2.76728 17.3943 3.12215V4.46018C17.3943 4.81505 17.5353 5.15539 17.7862 5.40632C18.0371 5.65725 18.3775 5.79822 18.7323 5.79822H20.0704V4.90619H18.7323C18.6141 4.90619 18.5006 4.8592 18.417 4.77556C18.3333 4.69192 18.2863 4.57847 18.2863 4.46018V3.12215C18.2863 2.5307 18.0514 1.96348 17.6332 1.54526C17.2149 1.12704 16.6477 0.89209 16.0563 0.89209C15.4648 0.89209 14.8976 1.12704 14.4794 1.54526C14.0612 1.96348 13.8262 2.5307 13.8262 3.12215V4.46018H12.4882C12.3699 4.46018 12.2564 4.50717 12.1728 4.59082C12.0892 4.67446 12.0422 4.78791 12.0422 4.90619V6.54306C10.1594 7.00441 8.46625 8.03854 7.19607 9.50283C5.9259 10.9671 5.14134 12.7894 4.95059 14.7185H1.33789V17.3945H2.32804C2.76959 17.399 3.19985 17.5346 3.5643 17.7839C3.92876 18.0332 4.21099 18.3851 4.37523 18.795V18.8262C4.55172 19.2319 4.60354 19.6809 4.52412 20.1162C4.4447 20.5514 4.23762 20.9532 3.92922 21.2704L3.23344 21.9706L7.02008 25.7572L7.72032 25.057C8.03752 24.7486 8.4393 24.5415 8.87452 24.4621C9.30975 24.3827 9.75877 24.4345 10.1645 24.611H10.1957C10.6063 24.7755 10.9587 25.0584 11.208 25.4238C11.4574 25.7891 11.5925 26.2203 11.5962 26.6626V27.6528H16.9483V26.6626C16.9528 26.2211 17.0883 25.7908 17.3377 25.4264C17.587 25.0619 17.9389 24.7797 18.3488 24.6154H18.38C18.7857 24.439 19.2347 24.3871 19.6699 24.4666C20.1052 24.546 20.5069 24.7531 20.8241 25.0615L21.5244 25.7617L25.311 21.9751L24.6108 21.2748C24.3024 20.9576 24.0953 20.5558 24.0159 20.1206C23.9365 19.6854 23.9883 19.2364 24.1648 18.8307V18.7995C24.3286 18.388 24.6112 18.0347 24.9766 17.7845C25.342 17.5343 25.7736 17.3985 26.2164 17.3945H27.2066V14.7185H23.5939ZM14.2722 7.13625C15.9483 7.13625 17.5867 7.63326 18.9803 8.56442C20.3738 9.49558 21.46 10.8191 22.1014 12.3675C22.7428 13.916 22.9106 15.6199 22.5836 17.2637C22.2566 18.9076 21.4495 20.4175 20.2644 21.6027C19.0793 22.7878 17.5693 23.5949 15.9255 23.9219C14.2816 24.2488 12.5777 24.081 11.0293 23.4396C9.48082 22.7982 8.15733 21.7121 7.22617 20.3185C6.29501 18.9249 5.79801 17.2865 5.79801 15.6105C5.79801 13.363 6.69082 11.2075 8.28005 9.6183C9.86927 8.02907 12.0247 7.13625 14.2722 7.13625Z" fill="#FF3737"/>
</svg>
