<svg width="31" height="31" viewBox="0 0 31 31" fill="none" xmlns="http://www.w3.org/2000/svg">
<g clip-path="url(#clip0_42_15324)">
<path d="M6.70878 20.1683L14.466 30.5113C14.9535 31.1629 16.0472 31.1629 16.5346 30.5113L24.2919 20.1683C24.5854 19.7765 24.6319 19.2529 24.4134 18.8146C24.1936 18.3763 23.7475 18.0997 23.2576 18.0997L19.3789 18.0997L19.3789 12.9282C19.3789 12.2145 18.801 11.6353 18.0861 11.6353L12.9146 11.6353C12.1996 11.6353 11.6217 12.2145 11.6217 12.9282L11.6217 18.0997L7.7431 18.0997C7.25312 18.0997 6.80575 18.3763 6.586 18.8146C6.36746 19.2529 6.414 19.7765 6.70878 20.1683Z" fill="#FF3737"/>
<path d="M12.9146 10.3428L18.0861 10.3428C18.801 10.3428 19.3789 9.76486 19.3789 9.04992C19.3789 8.33498 18.801 7.75706 18.0861 7.75706L12.9146 7.75706C12.1996 7.75706 11.6217 8.33498 11.6217 9.04992C11.6217 9.76486 12.1996 10.3428 12.9146 10.3428Z" fill="#FF3737"/>
<path d="M12.9146 6.46436L18.0861 6.46436C18.801 6.46436 19.3789 5.88644 19.3789 5.1715C19.3789 4.45656 18.801 3.87865 18.0861 3.87865L12.9146 3.87865C12.1996 3.87865 11.6217 4.45656 11.6217 5.1715C11.6217 5.88644 12.1996 6.46436 12.9146 6.46436Z" fill="#FF3737"/>
<path d="M12.9146 2.58594L18.0861 2.58594C18.801 2.58594 19.3789 2.00803 19.3789 1.29309C19.3789 0.578145 18.801 0.000228919 18.0861 0.000228856L12.9146 0.000228404C12.1996 0.000228342 11.6217 0.578144 11.6217 1.29308C11.6217 2.00803 12.1996 2.58594 12.9146 2.58594Z" fill="#FF3737"/>
</g>
<defs>
<clipPath id="clip0_42_15324">
<rect width="31" height="31" fill="white" transform="translate(31 31) rotate(-180)"/>
</clipPath>
</defs>
</svg>
