<svg width="80" height="66" viewBox="0 0 80 66" fill="none" xmlns="http://www.w3.org/2000/svg">
<path d="M5.69417 0H74.3058C75.816 0 77.2644 0.59992 78.3322 1.66778C79.4001 2.73565 80 4.18398 80 5.69417V63.5929C80 64.0992 79.7989 64.5848 79.4408 64.9429C79.0828 65.3009 78.5972 65.5021 78.0908 65.5021H1.90919C1.40284 65.5021 0.917233 65.3009 0.55919 64.9429C0.201147 64.5848 0 64.0992 0 63.5929V5.69417C0 4.18398 0.59992 2.73565 1.66778 1.66778C2.73565 0.59992 4.18398 0 5.69417 0Z" fill="url(#paint0_linear_284_3384)"/>
<path d="M66.0583 4.32022C66.0588 4.54405 65.9928 4.76299 65.8688 4.94932C65.7448 5.13566 65.5683 5.28102 65.3616 5.36701C65.155 5.45299 64.9275 5.47573 64.7079 5.43236C64.4883 5.38898 64.2865 5.28143 64.1281 5.12332C63.9696 4.96522 63.8616 4.76366 63.8178 4.54417C63.774 4.32467 63.7962 4.0971 63.8818 3.89027C63.9673 3.68343 64.1123 3.50662 64.2984 3.38221C64.4845 3.25781 64.7033 3.19141 64.9271 3.19141C65.2267 3.19141 65.5141 3.31026 65.7261 3.52188C65.9382 3.73351 66.0577 4.02062 66.0583 4.32022Z" fill="url(#paint1_linear_284_3384)"/>
<path d="M70.0583 4.32022C70.0588 4.54415 69.9928 4.76319 69.8686 4.94958C69.7445 5.13596 69.5679 5.28132 69.3611 5.36724C69.1543 5.45315 68.9267 5.47575 68.707 5.43218C68.4873 5.38861 68.2856 5.28083 68.1272 5.12248C67.9689 4.96414 67.8611 4.76236 67.8175 4.54271C67.7739 4.32305 67.7965 4.09541 67.8825 3.88861C67.9684 3.68182 68.1137 3.50517 68.3001 3.38105C68.4865 3.25694 68.7055 3.19094 68.9295 3.19141C69.2287 3.19204 69.5154 3.31117 69.727 3.52273C69.9385 3.73428 70.0577 4.02103 70.0583 4.32022Z" fill="url(#paint2_linear_284_3384)"/>
<path d="M73.945 4.32022C73.9455 4.54405 73.8795 4.76299 73.7555 4.94932C73.6315 5.13566 73.455 5.28102 73.2484 5.36701C73.0417 5.45299 72.8142 5.47573 72.5946 5.43236C72.375 5.38898 72.1732 5.28143 72.0148 5.12332C71.8563 4.96522 71.7484 4.76366 71.7045 4.54417C71.6607 4.32467 71.6829 4.0971 71.7685 3.89027C71.854 3.68343 71.999 3.50662 72.1851 3.38221C72.3712 3.25781 72.59 3.19141 72.8138 3.19141C73.1134 3.19141 73.4008 3.31026 73.6128 3.52188C73.8249 3.73351 73.9444 4.02062 73.945 4.32022Z" fill="url(#paint3_linear_284_3384)"/>
<path d="M25.0557 39.0576H9.34783C7.95731 39.0576 6.83008 40.1849 6.83008 41.5754V58.3643C6.83008 59.7549 7.95731 60.8821 9.34783 60.8821H25.0557C26.4462 60.8821 27.5735 59.7549 27.5735 58.3643V41.5754C27.5735 40.1849 26.4462 39.0576 25.0557 39.0576Z" fill="url(#paint4_linear_284_3384)"/>
<path d="M47.8018 39.0576H32.0939C30.7034 39.0576 29.5762 40.1849 29.5762 41.5754V58.3643C29.5762 59.7549 30.7034 60.8821 32.0939 60.8821H47.8018C49.1923 60.8821 50.3196 59.7549 50.3196 58.3643V41.5754C50.3196 40.1849 49.1923 39.0576 47.8018 39.0576Z" fill="url(#paint5_linear_284_3384)"/>
<path d="M70.6544 39.0576H54.9465C53.5559 39.0576 52.4287 40.1849 52.4287 41.5754V58.3643C52.4287 59.7549 53.5559 60.8821 54.9465 60.8821H70.6544C72.0449 60.8821 73.1721 59.7549 73.1721 58.3643V41.5754C73.1721 40.1849 72.0449 39.0576 70.6544 39.0576Z" fill="url(#paint6_linear_284_3384)"/>
<g opacity="0.75" style="mix-blend-mode:multiply">
<path d="M17.0611 53.4795H9.3623V54.4055H17.0611V53.4795Z" fill="#A8A8FB"/>
</g>
<g opacity="0.75" style="mix-blend-mode:multiply">
<path d="M24.7623 55.4268H9.3623V56.3527H24.7623V55.4268Z" fill="#A8A8FB"/>
</g>
<g opacity="0.75" style="mix-blend-mode:multiply">
<path d="M39.9996 53.4795H32.3008V54.4055H39.9996V53.4795Z" fill="#A8A8FB"/>
</g>
<g opacity="0.75" style="mix-blend-mode:multiply">
<path d="M47.7008 55.4268H32.3008V56.3527H47.7008V55.4268Z" fill="#A8A8FB"/>
</g>
<g opacity="0.75" style="mix-blend-mode:multiply">
<path d="M62.4283 53.4795H54.7295V54.4055H62.4283V53.4795Z" fill="#A8A8FB"/>
</g>
<g opacity="0.75" style="mix-blend-mode:multiply">
<path d="M70.1295 55.4268H54.7295V56.3527H70.1295V55.4268Z" fill="#A8A8FB"/>
</g>
<path d="M23.8097 41.6309H10.5933C9.78672 41.6309 9.13281 42.2848 9.13281 43.0914V49.8404C9.13281 50.647 9.78672 51.3009 10.5933 51.3009H23.8097C24.6164 51.3009 25.2703 50.647 25.2703 49.8404V43.0914C25.2703 42.2848 24.6164 41.6309 23.8097 41.6309Z" fill="url(#paint7_linear_284_3384)"/>
<path d="M23.8097 41.6309H10.5933C9.78672 41.6309 9.13281 42.2848 9.13281 43.0914V49.8404C9.13281 50.647 9.78672 51.3009 10.5933 51.3009H23.8097C24.6164 51.3009 25.2703 50.647 25.2703 49.8404V43.0914C25.2703 42.2848 24.6164 41.6309 23.8097 41.6309Z" fill="url(#paint8_radial_284_3384)" style="mix-blend-mode:screen"/>
<path d="M46.5529 41.6309H33.3365C32.5299 41.6309 31.876 42.2848 31.876 43.0914V49.8404C31.876 50.647 32.5299 51.3009 33.3365 51.3009H46.5529C47.3595 51.3009 48.0134 50.647 48.0134 49.8404V43.0914C48.0134 42.2848 47.3595 41.6309 46.5529 41.6309Z" fill="url(#paint9_linear_284_3384)"/>
<path d="M46.5529 41.6309H33.3365C32.5299 41.6309 31.876 42.2848 31.876 43.0914V49.8404C31.876 50.647 32.5299 51.3009 33.3365 51.3009H46.5529C47.3595 51.3009 48.0134 50.647 48.0134 49.8404V43.0914C48.0134 42.2848 47.3595 41.6309 46.5529 41.6309Z" fill="url(#paint10_radial_284_3384)" style="mix-blend-mode:screen"/>
<path d="M69.4064 41.6309H56.19C55.3834 41.6309 54.7295 42.2848 54.7295 43.0914V49.8404C54.7295 50.647 55.3834 51.3009 56.19 51.3009H69.4064C70.213 51.3009 70.867 50.647 70.867 49.8404V43.0914C70.867 42.2848 70.213 41.6309 69.4064 41.6309Z" fill="url(#paint11_linear_284_3384)"/>
<path d="M69.4064 41.6309H56.19C55.3834 41.6309 54.7295 42.2848 54.7295 43.0914V49.8404C54.7295 50.647 55.3834 51.3009 56.19 51.3009H69.4064C70.213 51.3009 70.867 50.647 70.867 49.8404V43.0914C70.867 42.2848 70.213 41.6309 69.4064 41.6309Z" fill="url(#paint12_radial_284_3384)" style="mix-blend-mode:screen"/>
<g style="mix-blend-mode:multiply">
<path d="M38.4627 7.74902H12.3234C10.722 7.74902 9.42383 9.04721 9.42383 10.6486V30.0269C9.42383 31.6283 10.722 32.9265 12.3234 32.9265H38.4627C40.0641 32.9265 41.3623 31.6283 41.3623 30.0269V10.6486C41.3623 9.04721 40.0641 7.74902 38.4627 7.74902Z" fill="url(#paint13_linear_284_3384)"/>
</g>
<g style="mix-blend-mode:screen">
<path d="M38.4627 7.74902H12.3234C10.722 7.74902 9.42383 9.04721 9.42383 10.6486V30.0269C9.42383 31.6283 10.722 32.9265 12.3234 32.9265H38.4627C40.0641 32.9265 41.3623 31.6283 41.3623 30.0269V10.6486C41.3623 9.04721 40.0641 7.74902 38.4627 7.74902Z" fill="url(#paint14_radial_284_3384)"/>
</g>
<g opacity="0.75" style="mix-blend-mode:multiply">
<path d="M37.2199 11.8373V23.8676C37.2202 24.0823 37.1782 24.295 37.0964 24.4934C37.0145 24.6919 36.8944 24.8723 36.7428 25.0243C36.5912 25.1763 36.4112 25.297 36.213 25.3794C36.0147 25.4619 35.8022 25.5045 35.5875 25.5048H15.2021C14.7683 25.5041 14.3525 25.3314 14.046 25.0244C13.7395 24.7175 13.5674 24.3014 13.5674 23.8676V11.8373C13.5674 11.4035 13.7395 10.9875 14.046 10.6805C14.3525 10.3736 14.7683 10.2008 15.2021 10.2002H35.5875C35.8022 10.2005 36.0147 10.2431 36.213 10.3255C36.4112 10.408 36.5912 10.5287 36.7428 10.6807C36.8944 10.8327 37.0145 11.0131 37.0964 11.2116C37.1782 11.41 37.2202 11.6227 37.2199 11.8373Z" fill="#A8A8FB"/>
</g>
<path d="M37.2199 20.6463V23.868C37.2202 24.0827 37.1782 24.2954 37.0964 24.4938C37.0145 24.6923 36.8944 24.8727 36.7428 25.0247C36.5912 25.1767 36.4112 25.2974 36.213 25.3798C36.0147 25.4623 35.8022 25.5049 35.5875 25.5052H15.2021C14.7683 25.5045 14.3525 25.3318 14.046 25.0248C13.7395 24.7179 13.5674 24.3018 13.5674 23.868V19.8516L20.0276 14.1741C20.3473 13.8929 20.7644 13.7481 21.1896 13.7709C21.6148 13.7936 22.0141 13.9821 22.3019 14.2958L27.8505 20.3384L31.4565 17.3291C31.8254 17.0221 32.2956 16.864 32.775 16.8857C33.2544 16.9073 33.7085 17.1071 34.0483 17.446L37.2199 20.6463Z" fill="url(#paint15_linear_284_3384)"/>
<path d="M34.1647 13.7679C34.1647 14.0672 34.076 14.3597 33.9098 14.6085C33.7435 14.8573 33.5072 15.0513 33.2307 15.1658C32.9543 15.2803 32.65 15.3103 32.3565 15.2519C32.063 15.1935 31.7934 15.0494 31.5818 14.8378C31.3702 14.6262 31.2261 14.3566 31.1677 14.0631C31.1094 13.7696 31.1393 13.4654 31.2538 13.1889C31.3684 12.9124 31.5623 12.6761 31.8111 12.5099C32.0599 12.3436 32.3525 12.2549 32.6517 12.2549C33.053 12.2549 33.4378 12.4143 33.7216 12.698C34.0053 12.9818 34.1647 13.3666 34.1647 13.7679Z" fill="url(#paint16_linear_284_3384)"/>
<path d="M34.3654 28.3037H16.4189V29.8693H34.3654V28.3037Z" fill="#E8EAF8"/>
<g style="mix-blend-mode:multiply">
<path d="M62.1534 19.2308H54.994C53.7881 19.2276 52.6326 18.747 51.7802 17.8942C50.9278 17.0413 50.4478 15.8856 50.4453 14.6797C50.4459 13.4704 50.9266 12.3107 51.7818 11.4556C52.6369 10.6005 53.7965 10.1198 55.0059 10.1191H62.1654C63.3728 10.1223 64.5298 10.6042 65.3825 11.4591C66.2352 12.3141 66.714 13.4722 66.714 14.6797C66.7121 15.8878 66.2307 17.0457 65.3756 17.8991C64.5204 18.7524 63.3615 19.2314 62.1534 19.2308Z" fill="url(#paint17_linear_284_3384)"/>
</g>
<g style="mix-blend-mode:screen">
<path d="M62.1534 19.2308H54.994C53.7881 19.2276 52.6326 18.747 51.7802 17.8942C50.9278 17.0413 50.4478 15.8856 50.4453 14.6797C50.4459 13.4704 50.9266 12.3107 51.7818 11.4556C52.6369 10.6005 53.7965 10.1198 55.0059 10.1191H62.1654C63.3728 10.1223 64.5298 10.6042 65.3825 11.4591C66.2352 12.3141 66.714 13.4722 66.714 14.6797C66.7121 15.8878 66.2307 17.0457 65.3756 17.8991C64.5204 18.7524 63.3615 19.2314 62.1534 19.2308Z" fill="url(#paint18_radial_284_3384)"/>
</g>
<path d="M55.0063 18.0615C54.1228 18.038 53.2834 17.6706 52.6667 17.0374C52.0501 16.4042 51.7051 15.5553 51.7051 14.6715C51.7051 13.7877 52.0501 12.9387 52.6667 12.3056C53.2834 11.6724 54.1228 11.3049 55.0063 11.2815H62.1658C62.6186 11.2695 63.0691 11.3483 63.4909 11.5132C63.9127 11.6782 64.2972 11.926 64.6217 12.2419C64.9462 12.5579 65.2041 12.9357 65.3801 13.353C65.5562 13.7702 65.647 14.2186 65.647 14.6715C65.647 15.1244 65.5562 15.5727 65.3801 15.99C65.2041 16.4073 64.9462 16.785 64.6217 17.101C64.2972 17.417 63.9127 17.6648 63.4909 17.8297C63.0691 17.9947 62.6186 18.0735 62.1658 18.0615H55.0063Z" fill="url(#paint19_linear_284_3384)"/>
<path d="M57.0003 16.5792C58.0553 15.5242 58.0553 13.8137 57.0003 12.7587C55.9453 11.7037 54.2348 11.7037 53.1798 12.7587C52.1248 13.8137 52.1248 15.5242 53.1798 16.5792C54.2348 17.6342 55.9453 17.6342 57.0003 16.5792Z" fill="url(#paint20_linear_284_3384)"/>
<g style="mix-blend-mode:multiply">
<path d="M62.1534 21.4434H55.0059C52.4872 21.4434 50.4453 23.4852 50.4453 26.0039C50.4453 28.5227 52.4872 30.5645 55.0059 30.5645H62.1534C64.6722 30.5645 66.714 28.5227 66.714 26.0039C66.714 23.4852 64.6722 21.4434 62.1534 21.4434Z" fill="url(#paint21_linear_284_3384)"/>
</g>
<g style="mix-blend-mode:screen">
<path d="M62.1534 21.4434H55.0059C52.4872 21.4434 50.4453 23.4852 50.4453 26.0039C50.4453 28.5227 52.4872 30.5645 55.0059 30.5645H62.1534C64.6722 30.5645 66.714 28.5227 66.714 26.0039C66.714 23.4852 64.6722 21.4434 62.1534 21.4434Z" fill="url(#paint22_radial_284_3384)"/>
</g>
<g style="mix-blend-mode:multiply" opacity="0.75">
<path d="M55.0063 29.3945C54.1228 29.3711 53.2834 29.0036 52.6667 28.3704C52.0501 27.7372 51.7051 26.8883 51.7051 26.0045C51.7051 25.1207 52.0501 24.2718 52.6667 23.6386C53.2834 23.0054 54.1228 22.6379 55.0063 22.6145H62.1658C62.6186 22.6025 63.0691 22.6813 63.4909 22.8462C63.9127 23.0112 64.2972 23.259 64.6217 23.5749C64.9462 23.8909 65.2041 24.2687 65.3801 24.686C65.5562 25.1033 65.647 25.5516 65.647 26.0045C65.647 26.4574 65.5562 26.9057 65.3801 27.323C65.2041 27.7403 64.9462 28.118 64.6217 28.434C64.2972 28.75 63.9127 28.9978 63.4909 29.1628C63.0691 29.3277 62.6186 29.4065 62.1658 29.3945H55.0063Z" fill="#5151D0"/>
</g>
<path d="M64.0169 27.9132C65.0719 26.8582 65.0719 25.1477 64.0169 24.0927C62.9619 23.0377 61.2514 23.0377 60.1964 24.0927C59.1414 25.1477 59.1414 26.8582 60.1964 27.9132C61.2514 28.9682 62.9619 28.9682 64.0169 27.9132Z" fill="url(#paint23_linear_284_3384)"/>
<defs>
<linearGradient id="paint0_linear_284_3384" x1="40" y1="72.3823" x2="40" y2="6.71082" gradientUnits="userSpaceOnUse">
<stop stop-color="#0033EB" stop-opacity="0.6"/>
<stop offset="1" stop-color="#C3DCF5"/>
</linearGradient>
<linearGradient id="paint1_linear_284_3384" x1="66.0106" y1="5.81655" x2="64.4737" y2="3.69257" gradientUnits="userSpaceOnUse">
<stop stop-color="#DE5D83"/>
<stop offset="1" stop-color="#EBB083"/>
</linearGradient>
<linearGradient id="paint2_linear_284_3384" x1="70.0106" y1="5.81655" x2="68.4737" y2="3.69257" gradientUnits="userSpaceOnUse">
<stop stop-color="#DE5D83"/>
<stop offset="1" stop-color="#EBB083"/>
</linearGradient>
<linearGradient id="paint3_linear_284_3384" x1="73.8973" y1="5.81655" x2="72.3604" y2="3.69257" gradientUnits="userSpaceOnUse">
<stop stop-color="#DE5D83"/>
<stop offset="1" stop-color="#EBB083"/>
</linearGradient>
<linearGradient id="paint4_linear_284_3384" x1="17.5502" y1="71.8838" x2="17.1326" y2="45.5894" gradientUnits="userSpaceOnUse">
<stop stop-color="#D8E0FD" stop-opacity="0"/>
<stop offset="1" stop-color="#F5F7F9"/>
</linearGradient>
<linearGradient id="paint5_linear_284_3384" x1="40.2891" y1="71.5235" x2="39.8715" y2="45.2291" gradientUnits="userSpaceOnUse">
<stop stop-color="#D8E0FD" stop-opacity="0"/>
<stop offset="1" stop-color="#F5F7F9"/>
</linearGradient>
<linearGradient id="paint6_linear_284_3384" x1="63.1345" y1="71.1607" x2="62.7169" y2="44.8663" gradientUnits="userSpaceOnUse">
<stop stop-color="#D8E0FD" stop-opacity="0"/>
<stop offset="1" stop-color="#F5F7F9"/>
</linearGradient>
<linearGradient id="paint7_linear_284_3384" x1="16.9128" y1="58.1883" x2="17.328" y2="41.2848" gradientUnits="userSpaceOnUse">
<stop stop-color="#EAAD83" stop-opacity="0"/>
<stop offset="1" stop-color="#E27B83"/>
</linearGradient>
<radialGradient id="paint8_radial_284_3384" cx="0" cy="0" r="1" gradientUnits="userSpaceOnUse" gradientTransform="translate(9.63875 42.8146) scale(10.1903 10.1903)">
<stop stop-color="#EAAB71"/>
<stop offset="1" stop-color="#DE5D83" stop-opacity="0"/>
</radialGradient>
<linearGradient id="paint9_linear_284_3384" x1="39.6559" y1="58.1883" x2="40.0736" y2="41.2848" gradientUnits="userSpaceOnUse">
<stop stop-color="#D8E0FD" stop-opacity="0"/>
<stop offset="1" stop-color="#6B6BEA"/>
</linearGradient>
<radialGradient id="paint10_radial_284_3384" cx="0" cy="0" r="1" gradientUnits="userSpaceOnUse" gradientTransform="translate(32.8735 42.1177) scale(10.4767 10.4767)">
<stop stop-color="#EAAB71"/>
<stop offset="1" stop-color="#DE5D83" stop-opacity="0"/>
</radialGradient>
<linearGradient id="paint11_linear_284_3384" x1="62.5095" y1="58.1883" x2="62.9271" y2="41.2848" gradientUnits="userSpaceOnUse">
<stop stop-color="#8FDCE9" stop-opacity="0"/>
<stop offset="1" stop-color="#9EF6EC"/>
</linearGradient>
<radialGradient id="paint12_radial_284_3384" cx="0" cy="0" r="1" gradientUnits="userSpaceOnUse" gradientTransform="translate(55.412 41.8409) scale(10.4314)">
<stop stop-color="#EAAB71"/>
<stop offset="1" stop-color="#DE5D83" stop-opacity="0"/>
</radialGradient>
<linearGradient id="paint13_linear_284_3384" x1="25.4945" y1="42.2673" x2="25.3537" y2="11.8514" gradientUnits="userSpaceOnUse">
<stop stop-color="#D8E0FD" stop-opacity="0.6"/>
<stop offset="1" stop-color="#F5F7F9"/>
</linearGradient>
<radialGradient id="paint14_radial_284_3384" cx="0" cy="0" r="1" gradientUnits="userSpaceOnUse" gradientTransform="translate(10.2352 7.48651) scale(29.9457 29.9457)">
<stop stop-color="#EAAB71"/>
<stop offset="1" stop-color="#DE5D83" stop-opacity="0"/>
</radialGradient>
<linearGradient id="paint15_linear_284_3384" x1="25.3948" y1="28.2878" x2="25.3948" y2="17.7133" gradientUnits="userSpaceOnUse">
<stop stop-color="#F3D35B"/>
<stop offset="1" stop-color="#F5DCBE"/>
</linearGradient>
<linearGradient id="paint16_linear_284_3384" x1="32.6517" y1="15.9993" x2="32.6517" y2="13.2715" gradientUnits="userSpaceOnUse">
<stop stop-color="#DE5D83"/>
<stop offset="1" stop-color="#EAAB71"/>
</linearGradient>
<linearGradient id="paint17_linear_284_3384" x1="58.6167" y1="22.6077" x2="58.5665" y2="11.6012" gradientUnits="userSpaceOnUse">
<stop stop-color="#D8E0FD" stop-opacity="0.6"/>
<stop offset="1" stop-color="#F5F7F9"/>
</linearGradient>
<radialGradient id="paint18_radial_284_3384" cx="0" cy="0" r="1" gradientUnits="userSpaceOnUse" gradientTransform="translate(50.8582 10.0141) scale(13.6627 13.6627)">
<stop stop-color="#EAAB71"/>
<stop offset="1" stop-color="#DE5D83" stop-opacity="0"/>
</radialGradient>
<linearGradient id="paint19_linear_284_3384" x1="58.3355" y1="21.7486" x2="58.6672" y2="12.1979" gradientUnits="userSpaceOnUse">
<stop stop-color="#D8E0FD"/>
<stop offset="1" stop-color="#F5F7F9"/>
</linearGradient>
<linearGradient id="paint20_linear_284_3384" x1="56.567" y1="17.2237" x2="54.2712" y2="13.2573" gradientUnits="userSpaceOnUse">
<stop stop-color="#4C86FA"/>
<stop offset="1" stop-color="#8EF0FD"/>
</linearGradient>
<linearGradient id="paint21_linear_284_3384" x1="58.6167" y1="33.9414" x2="58.5665" y2="22.9325" gradientUnits="userSpaceOnUse">
<stop stop-color="#D8E0FD" stop-opacity="0.6"/>
<stop offset="1" stop-color="#F5F7F9"/>
</linearGradient>
<radialGradient id="paint22_radial_284_3384" cx="0" cy="0" r="1" gradientUnits="userSpaceOnUse" gradientTransform="translate(50.8582 21.3479) scale(13.6627 13.6627)">
<stop stop-color="#EAAB71"/>
<stop offset="1" stop-color="#DE5D83" stop-opacity="0"/>
</radialGradient>
<linearGradient id="paint23_linear_284_3384" x1="63.5849" y1="28.5562" x2="61.2891" y2="24.5898" gradientUnits="userSpaceOnUse">
<stop stop-color="#DE5D83"/>
<stop offset="1" stop-color="#EAAB71"/>
</linearGradient>
</defs>
</svg>
